<svg width="56" height="56" viewBox="0 0 56 56" fill="none" xmlns="http://www.w3.org/2000/svg">
<rect width="56" height="56" rx="28" fill="#5FA777"/>
<path d="M37.09 22.98C36.24 22.04 34.82 21.57 32.76 21.57H32.52V21.53C32.52 19.85 32.52 17.77 28.76 17.77H27.24C23.48 17.77 23.48 19.86 23.48 21.53V21.58H23.24C21.17 21.58 19.76 22.05 18.91 22.99C17.92 24.09 17.95 25.57 18.05 26.58L18.06 26.65L18.1375 27.4633C18.1518 27.6131 18.2324 27.7484 18.3583 27.8307C18.5981 27.9877 18.9995 28.2464 19.24 28.38C19.38 28.47 19.53 28.55 19.68 28.63C21.39 29.57 23.27 30.2 25.18 30.51C25.27 31.45 25.68 32.55 27.87 32.55C30.06 32.55 30.49 31.46 30.56 30.49C32.6 30.16 34.57 29.45 36.35 28.41C36.41 28.38 36.45 28.35 36.5 28.32C36.8968 28.0958 37.3083 27.8195 37.6835 27.5489C37.7965 27.4673 37.8688 27.3413 37.8842 27.2028L37.9 27.06L37.95 26.59C37.96 26.53 37.96 26.48 37.97 26.41C38.05 25.4 38.03 24.02 37.09 22.98ZM29.09 29.83C29.09 30.89 29.09 31.05 27.86 31.05C26.63 31.05 26.63 30.86 26.63 29.84V28.58H29.09V29.83ZM24.91 21.57V21.53C24.91 19.83 24.91 19.2 27.24 19.2H28.76C31.09 19.2 31.09 19.84 31.09 21.53V21.58H24.91V21.57Z" fill="white"/>
<path d="M36.8733 29.7344C37.2269 29.5661 37.6342 29.8464 37.5988 30.2364L37.2398 34.1902C37.0298 36.1902 36.2098 38.2302 31.8098 38.2302H24.1898C19.7898 38.2302 18.9698 36.1902 18.7598 34.2002L18.4191 30.4524C18.3841 30.0669 18.782 29.787 19.1347 29.9465C20.2741 30.462 22.3772 31.3766 23.6764 31.7169C23.8407 31.7599 23.9736 31.8775 24.0456 32.0314C24.6525 33.3295 25.969 34.0202 27.8698 34.0202C29.752 34.0202 31.085 33.3029 31.694 32.0016C31.766 31.8476 31.8991 31.7301 32.0635 31.6868C33.443 31.3238 35.6816 30.3015 36.8733 29.7344Z" fill="white"/>
</svg>
