<svg width="483" height="510" viewBox="0 0 483 510" fill="none" xmlns="http://www.w3.org/2000/svg">
<circle cx="335.034" cy="6.17834" r="5.91857" fill="#5FA777"/>
<circle cx="335.034" cy="77.2017" r="5.91857" fill="#5FA777"/>
<circle cx="335.034" cy="148.224" r="5.91857" fill="#5FA777"/>
<circle cx="335.034" cy="219.247" r="5.91857" fill="#5FA777"/>
<circle cx="335.034" cy="290.271" r="5.91857" fill="#5FA777"/>
<circle cx="335.034" cy="361.294" r="5.91857" fill="#5FA777"/>
<circle cx="335.034" cy="432.317" r="5.91857" fill="#5FA777"/>
<circle cx="335.034" cy="503.339" r="5.91857" fill="#5FA777"/>
<circle cx="406.054" cy="6.17846" r="5.91857" fill="#5FA777"/>
<circle cx="406.054" cy="77.2017" r="5.91857" fill="#5FA777"/>
<circle cx="406.054" cy="148.224" r="5.91857" fill="#5FA777"/>
<circle cx="406.054" cy="219.247" r="5.91857" fill="#5FA777"/>
<circle cx="406.054" cy="290.271" r="5.91857" fill="#5FA777"/>
<circle cx="406.054" cy="361.294" r="5.91857" fill="#5FA777"/>
<circle cx="406.054" cy="432.317" r="5.91857" fill="#5FA777"/>
<circle cx="406.054" cy="503.339" r="5.91857" fill="#5FA777"/>
<circle cx="477.082" cy="6.17846" r="5.91857" fill="#5FA777"/>
<circle cx="477.082" cy="77.2017" r="5.91857" fill="#5FA777"/>
<circle cx="477.082" cy="148.224" r="5.91857" fill="#5FA777"/>
<circle cx="477.082" cy="219.247" r="5.91857" fill="#5FA777"/>
<circle cx="477.082" cy="290.271" r="5.91857" fill="#5FA777"/>
<circle cx="477.082" cy="361.294" r="5.91857" fill="#5FA777"/>
<circle cx="477.082" cy="432.317" r="5.91857" fill="#5FA777"/>
<circle cx="477.082" cy="503.339" r="5.91857" fill="#5FA777"/>
<circle cx="50.9449" cy="6.17834" r="5.91857" fill="#5FA777"/>
<circle cx="50.9449" cy="77.2017" r="5.91857" fill="#5FA777"/>
<circle cx="50.9449" cy="148.224" r="5.91857" fill="#5FA777"/>
<circle cx="50.9449" cy="219.247" r="5.91857" fill="#5FA777"/>
<circle cx="50.9449" cy="290.271" r="5.91857" fill="#5FA777"/>
<circle cx="50.9449" cy="361.294" r="5.91857" fill="#5FA777"/>
<circle cx="50.9449" cy="432.317" r="5.91857" fill="#5FA777"/>
<circle cx="50.9449" cy="503.339" r="5.91857" fill="#5FA777"/>
<circle cx="121.96" cy="6.17834" r="5.91857" fill="#5FA777"/>
<circle cx="121.96" cy="77.2017" r="5.91857" fill="#5FA777"/>
<circle cx="121.96" cy="148.224" r="5.91857" fill="#5FA777"/>
<circle cx="121.96" cy="219.247" r="5.91857" fill="#5FA777"/>
<circle cx="121.96" cy="290.271" r="5.91857" fill="#5FA777"/>
<circle cx="121.96" cy="361.294" r="5.91857" fill="#5FA777"/>
<circle cx="121.96" cy="432.317" r="5.91857" fill="#5FA777"/>
<circle cx="121.96" cy="503.339" r="5.91857" fill="#5FA777"/>
<circle cx="192.993" cy="6.17834" r="5.91857" fill="#5FA777"/>
<circle cx="192.993" cy="77.2017" r="5.91857" fill="#5FA777"/>
<circle cx="192.993" cy="148.224" r="5.91857" fill="#5FA777"/>
<circle cx="192.993" cy="219.247" r="5.91857" fill="#5FA777"/>
<circle cx="192.993" cy="290.271" r="5.91857" fill="#5FA777"/>
<circle cx="192.993" cy="361.294" r="5.91857" fill="#5FA777"/>
<circle cx="192.993" cy="432.317" r="5.91857" fill="#5FA777"/>
<circle cx="192.993" cy="503.339" r="5.91857" fill="#5FA777"/>
<circle cx="264.02" cy="6.17834" r="5.91857" fill="#5FA777"/>
<circle cx="264.02" cy="77.2017" r="5.91857" fill="#5FA777"/>
<circle cx="264.02" cy="148.224" r="5.91857" fill="#5FA777"/>
<circle cx="264.02" cy="219.247" r="5.91857" fill="#5FA777"/>
<circle cx="264.02" cy="290.271" r="5.91857" fill="#5FA777"/>
<circle cx="264.02" cy="361.294" r="5.91857" fill="#5FA777"/>
<circle cx="264.02" cy="432.317" r="5.91857" fill="#5FA777"/>
<circle cx="264.02" cy="503.339" r="5.91857" fill="#5FA777"/>
</svg>
