<svg width="64" height="64" viewBox="0 0 64 64" fill="none" xmlns="http://www.w3.org/2000/svg">
<rect width="64" height="64.001" rx="32" fill="#5FA777"/>
<path d="M32.456 44.352C30.8987 44.352 29.448 44.128 28.104 43.68C26.7707 43.2213 25.608 42.6027 24.616 41.824C23.6347 41.0347 22.8773 40.1387 22.344 39.136L26.488 36.496C26.9253 37.1467 27.3893 37.744 27.88 38.288C28.3707 38.8213 28.936 39.248 29.576 39.568C30.2267 39.8773 30.9893 40.032 31.864 40.032C33.1227 40.032 34.136 39.712 34.904 39.072C35.672 38.4213 36.056 37.6107 36.056 36.64C36.056 36.032 35.8907 35.472 35.56 34.96C35.2293 34.4373 34.76 34.0213 34.152 33.712C33.544 33.4027 32.8187 33.248 31.976 33.248C31.5707 33.248 31.1867 33.2853 30.824 33.36C30.472 33.424 30.0987 33.5413 29.704 33.712C29.32 33.8827 28.8773 34.1227 28.376 34.432C28.2053 34.5067 28.0827 34.544 28.008 34.544C27.9333 34.5333 27.8 34.4853 27.608 34.4L23.8 32.48L24.872 20.864H40.2L39.976 25.28H29.096L28.696 29.984C29.592 29.6213 30.392 29.3493 31.096 29.168C31.8107 28.9867 32.6053 28.896 33.48 28.896C35.08 28.896 36.504 29.1947 37.752 29.792C39 30.3787 39.976 31.2373 40.68 32.368C41.3947 33.488 41.752 34.848 41.752 36.448C41.752 38.0907 41.3733 39.504 40.616 40.688C39.8587 41.8613 38.7867 42.768 37.4 43.408C36.0133 44.0373 34.3653 44.352 32.456 44.352Z" fill="#F6F6F6"/>
</svg>
