<svg width="20" height="21" viewBox="0 0 20 21" fill="none" xmlns="http://www.w3.org/2000/svg">
<path d="M16.875 17.0442V9.19571C16.875 9.10862 16.8568 9.0225 16.8216 8.94286C16.7863 8.86323 16.7349 8.79183 16.6704 8.73325L10.42 3.05082C10.3049 2.94622 10.155 2.88827 9.99955 2.88828C9.84406 2.88828 9.69415 2.94624 9.57911 3.05085L3.32954 8.73325C3.26511 8.79183 3.21364 8.86323 3.17842 8.94286C3.14319 9.02249 3.125 9.10861 3.125 9.19568V17.0442" stroke="#888888"  stroke-width="1.25" stroke-linecap="round" stroke-linejoin="round"/>
<path d="M1.25 17.0443H18.75" stroke="#888888" stroke-width="1.25" stroke-linecap="round" stroke-linejoin="round"/>
<path d="M11.8745 17.0436V12.6686C11.8745 12.5028 11.8087 12.3438 11.6915 12.2266C11.5742 12.1094 11.4153 12.0436 11.2495 12.0436H8.74951C8.58375 12.0436 8.42478 12.1094 8.30757 12.2266C8.19036 12.3438 8.12451 12.5028 8.12451 12.6686V17.0436" stroke="#888888" stroke-width="1.25" stroke-linecap="round" stroke-linejoin="round"/>
</svg>
