<svg width="188" height="107" viewBox="0 0 188 107" fill="none" xmlns="http://www.w3.org/2000/svg">
<path d="M47.447 43.8827L22.0115 95.3653L25.6801 102.72L51.36 51.2374L47.447 43.8827ZM42.0663 32.8507L16.3863 84.3333L20.0548 91.933L45.7349 40.2054L42.0663 32.8507ZM36.6857 22.3091L11.0057 73.5466L14.6743 81.1463L40.3543 29.6638L36.6857 22.3091ZM31.0606 11.2771L5.62516 62.7596L9.29372 70.1143L34.9738 18.6318L31.0606 11.2771ZM25.6801 0L0 51.4826L3.66857 59.0823L29.3485 7.35464L25.6801 0Z" fill="black"/>
<path d="M88.5358 28.596H78.2116V27.6128C80.6696 27.3672 81.1614 27.3672 81.1614 25.4008V16.7986H71.5746V25.4008C71.5746 27.3672 71.8203 27.3672 74.5244 27.6128V28.596H64.2002V27.6128C66.6582 27.3672 67.15 27.3672 67.15 25.4008V7.9505C67.15 5.98427 66.9041 5.98427 64.2002 5.7385V4.75537H74.5244V5.7385C72.0662 5.98427 71.5746 5.98427 71.5746 7.9505V15.3239H81.1614V7.9505C81.1614 5.98427 80.9155 5.98427 78.2116 5.7385V4.75537H88.5358V5.7385C86.0776 5.98427 85.5861 5.98427 85.5861 7.9505V25.4008C85.5861 27.3672 85.8317 27.3672 88.5358 27.6128V28.596ZM128.112 28.596H119.263V27.6128H120C120.983 27.6128 121.229 27.1213 121.229 25.8925V17.2901C121.229 14.8323 120.246 13.6034 118.033 13.6034C116.558 13.6034 115.329 14.3408 114.592 15.5697C114.346 16.0612 114.346 16.5528 114.346 17.5359V25.6466C114.346 26.8755 114.592 27.3672 115.575 27.3672H116.313V28.3502H107.463V27.3672C109.43 27.3672 109.676 27.1213 109.676 25.4008V14.8323C109.676 13.3577 109.43 13.1119 108.692 13.1119L107.463 12.8661V11.883L113.363 10.8999L113.855 13.3577L114.346 13.1119C116.313 11.883 117.788 10.8999 119.754 10.8999C122.95 10.8999 124.916 12.8661 124.916 16.307V25.4008C124.916 27.1213 125.162 27.1213 127.374 27.3672V28.596H128.112ZM149.743 28.596H141.14V27.6128H141.877C142.861 27.6128 143.106 27.1213 143.106 25.8925V17.2901C143.106 14.8323 142.123 13.6034 139.911 13.6034C138.436 13.6034 137.207 14.3408 136.469 15.5697C136.224 16.0612 136.224 16.5528 136.224 17.5359V25.6466C136.224 26.8755 136.469 27.3672 137.453 27.3672H138.19V28.3502H129.341V27.3672C131.307 27.3672 131.553 27.1213 131.553 25.4008V14.8323C131.553 13.3577 131.307 13.1119 130.57 13.1119L129.341 12.8661V11.883L135.24 10.8999L135.732 13.3577L136.224 13.1119C138.19 11.883 139.665 10.8999 141.632 10.8999C144.827 10.8999 146.794 12.8661 146.794 16.307V25.4008C146.794 27.1213 147.04 27.1213 149.252 27.3672V28.596H149.743ZM157.609 28.8419C155.889 28.8419 153.431 28.3502 151.956 27.1213L151.71 22.2058H152.693C153.677 25.4008 155.397 27.3672 157.855 27.3672C159.576 27.3672 160.559 26.384 160.559 24.9093C160.559 23.4346 159.33 22.2058 157.118 21.4684C153.677 20.2394 151.956 18.519 151.956 16.307C151.956 12.8661 154.414 10.8999 158.347 10.8999C160.313 10.8999 162.034 11.3914 163.263 12.1288V16.5528H162.28C161.788 13.8492 160.313 12.3745 158.347 12.3745C156.872 12.3745 155.889 13.3577 155.643 14.8323C155.643 16.5528 157.609 17.2901 159.33 18.0275C162.28 19.0106 164.492 20.4853 164.492 23.6805C164.492 26.8755 161.788 28.8419 157.609 28.8419ZM71.8203 63.9884C69.608 63.9884 66.4125 63.4967 64.6918 61.7764L64.2002 55.8776H65.1833C66.4125 60.0558 68.8705 62.5137 71.5746 62.5137C74.2785 62.5137 75.9993 61.039 75.9993 58.3353C75.9993 56.1233 74.7701 54.4029 71.8203 53.1739L71.0829 52.9283C67.8874 51.6992 64.4459 49.7331 64.4459 45.5549C64.4459 41.1308 67.6415 38.6729 72.8036 38.6729C74.5244 38.6729 77.2283 39.1646 78.9491 40.1476V45.5549H77.9657C76.9824 40.885 74.5244 39.902 72.8036 39.902C70.3454 39.902 68.8705 41.3767 68.8705 43.8343C68.8705 46.2922 71.0829 47.521 73.787 48.7499L74.7701 49.2416C77.4742 50.4704 80.6696 52.1909 80.6696 56.3691C80.6696 58.827 79.6865 63.9884 71.8203 63.9884ZM91.2397 63.9884C85.8317 63.9884 83.1278 60.7932 83.1278 55.1403C83.1278 52.4366 83.8653 50.4704 85.0943 48.7499C86.5692 47.0295 88.5358 46.0464 91.2397 46.0464C97.6308 46.0464 98.6142 50.4704 98.6142 53.1739C98.6142 54.4029 98.1224 54.403 97.1393 54.403H88.0441C88.0441 59.0726 89.7648 61.5305 92.9605 61.5305C95.1726 61.5305 96.6475 60.5473 97.6308 58.0897L98.6142 58.5811C96.8934 62.2679 94.6811 63.9884 91.2397 63.9884ZM90.9938 47.521C88.5358 47.521 87.5525 50.4704 87.5525 53.1739H92.4687C93.4521 53.1739 93.6977 52.9283 93.6977 51.9451C93.9436 50.7162 93.6977 47.521 90.9938 47.521ZM109.184 63.4967H100.089V62.5137C102.056 62.5137 102.547 62.2679 102.547 60.5473V49.9789C102.547 48.5042 102.301 48.2584 101.564 48.2584L100.335 48.0125V47.0295L106.726 46.0464L106.972 46.2922V60.5473C106.972 62.2679 107.218 62.2679 109.43 62.5137V63.4967H109.184ZM104.514 43.8343C103.039 43.8343 101.81 42.6055 101.81 41.1308C101.81 39.6561 103.039 38.4273 104.514 38.4273C105.989 38.4273 107.218 39.4103 107.218 41.1308C107.218 42.8513 106.234 43.8343 104.514 43.8343ZM117.542 63.9884C113.363 63.9884 110.659 60.7932 110.659 55.3859C110.659 52.4366 111.396 49.9789 113.117 48.5042C114.592 47.0295 116.804 46.2922 119.508 46.2922C120.737 46.2922 121.721 46.5378 122.458 46.7837V41.8681C122.458 40.3935 122.212 40.1476 121.475 40.1476L120.246 39.902V38.6729L126.637 37.69L126.883 37.9356V60.5473C126.883 62.2679 127.129 62.2679 129.341 62.5137V63.4967H122.704V61.2847H122.458C120.737 63.251 119.017 63.9884 117.542 63.9884ZM119.508 47.521C116.804 47.521 115.084 50.2246 115.084 54.8944C115.084 59.3185 116.558 61.7764 119.263 61.7764C120.737 61.7764 121.966 61.039 122.458 59.81C122.704 59.3185 122.704 58.5811 122.704 58.0897V51.2077C122.704 50.4704 122.704 49.7331 122.458 49.2416C121.966 48.0125 120.983 47.521 119.508 47.521ZM138.928 63.9884C133.52 63.9884 130.816 60.7932 130.816 55.1403C130.816 52.4366 131.553 50.4704 132.782 48.7499C134.257 47.0295 136.224 46.0464 138.928 46.0464C145.319 46.0464 146.302 50.4704 146.302 53.1739C146.302 54.4029 145.81 54.403 144.827 54.403H135.732C135.732 59.0726 137.453 61.5305 140.648 61.5305C142.861 61.5305 144.335 60.5473 145.319 58.0897L146.302 58.5811C144.827 62.2679 142.615 63.9884 138.928 63.9884ZM138.928 47.521C136.469 47.521 135.486 50.4704 135.486 53.1739H140.403C141.386 53.1739 141.632 52.9283 141.632 51.9451C141.632 50.7162 141.386 47.521 138.928 47.521ZM156.872 63.4967H147.777V62.5137C149.743 62.5137 150.235 62.2679 150.235 60.5473V41.6223C150.235 40.1476 149.989 39.902 149.252 39.902L148.023 39.6561V38.6729L154.414 37.69L154.66 37.9356V60.5473C154.66 62.2679 154.906 62.2679 157.118 62.5137V63.4967H156.872ZM71.8203 99.1349C69.608 99.1349 66.4125 98.6432 64.6918 96.9229L64.2002 91.0242H65.1833C66.4125 95.2024 68.8705 97.6602 71.5746 97.6602C74.2785 97.6602 75.9993 96.1855 75.9993 93.4818C75.9993 91.2698 74.7701 89.5495 71.8203 88.3204L71.0829 88.0748C67.8874 86.8458 64.4459 84.8796 64.4459 80.7014C64.4459 76.2773 67.6415 73.8195 72.8036 73.8195C74.5244 73.8195 77.2283 74.3112 78.9491 75.2941V80.7014H77.9657C76.9824 76.0315 74.5244 75.2941 72.8036 75.2941C70.3454 75.2941 68.8705 76.7688 68.8705 79.2267C68.8705 81.6844 71.0829 82.9134 73.787 84.1422L74.7701 84.6337C77.4742 85.8628 80.6696 87.5831 80.6696 91.7615C80.6696 93.9735 79.6865 99.1349 71.8203 99.1349ZM87.7984 98.8891C86.3235 98.8891 83.8653 97.9059 83.8653 94.7109V83.159H81.8988V81.6844H84.1112L86.8151 77.2605H88.29V81.6844H91.9772V82.9134H88.29V93.2362C88.29 95.4482 89.0274 96.677 90.5023 96.677C91.2397 96.677 91.9772 96.4312 92.4687 96.4312L92.7146 97.1685C91.2397 98.3976 89.2733 98.8891 87.7984 98.8891ZM103.039 98.6432H93.9436V97.6602C95.9101 97.6602 96.4018 97.4144 96.4018 95.6938V85.1254C96.4018 83.8964 96.156 83.4049 95.4185 83.4049L94.1895 83.159V82.1761L100.335 81.1929L100.581 81.4387V95.6938C100.581 97.4144 100.826 97.4144 103.039 97.6602V98.6432ZM98.3683 78.9809C96.8934 78.9809 95.6644 77.752 95.6644 76.2773C95.6644 74.8027 96.8934 73.5738 98.3683 73.5738C99.8432 73.5738 101.072 74.5568 101.072 76.2773C100.826 77.752 99.8432 78.9809 98.3683 78.9809ZM114.1 98.6432H104.514V97.6602C106.48 97.6602 106.726 97.4144 106.726 95.6938V83.159H104.514V81.6844H106.726V80.4555C106.726 77.752 107.218 76.0315 108.201 74.8027C109.184 73.5738 110.905 72.8365 112.626 72.8365C116.067 72.8365 117.296 74.5568 117.296 75.7858C117.296 77.0147 116.067 77.5062 115.329 77.5062C114.592 77.5062 114.346 77.0147 114.1 76.7688C113.117 74.8027 112.626 74.0653 111.888 74.0653C111.642 74.0653 111.396 74.0653 111.151 74.3112C110.905 74.5568 110.659 75.2941 110.659 76.0315C110.659 77.0147 110.905 78.2435 110.905 79.4725C110.905 80.4555 111.151 81.1929 111.151 81.4387H114.838V82.9134H111.151V95.4482C111.151 97.1685 111.396 97.1685 114.1 97.4144V98.6432ZM122.458 98.8891C120.983 98.8891 118.525 97.9059 118.525 94.7109V83.159H116.558V81.6844H118.771L121.475 77.2605H122.95V81.6844H126.391V82.9134H122.704V93.2362C122.704 95.4482 123.441 96.677 124.916 96.677C125.654 96.677 126.391 96.4312 126.883 96.4312L127.129 97.1685C125.654 98.3976 123.687 98.8891 122.458 98.8891ZM134.995 98.8891C133.274 98.8891 130.078 98.1517 130.078 93.7277V84.8796C130.078 83.4049 129.832 83.159 129.095 83.159L127.866 82.9134V81.9302L134.257 80.947L134.503 81.1929V92.7445C134.503 95.2024 135.732 96.677 137.698 96.677C139.419 96.677 140.648 95.4482 141.14 94.7109C141.386 94.2192 141.386 93.2362 141.386 92.7445V85.1254C141.386 83.6507 141.14 83.4049 140.403 83.4049L139.173 83.159V82.1761L145.565 81.1929L145.81 81.4387V95.6938C145.81 97.4144 146.056 97.4144 148.023 97.6602V98.6432H141.632L141.386 96.677C141.14 96.9229 140.894 96.9229 140.648 97.1685C139.173 97.9059 137.453 98.8891 134.995 98.8891ZM169.654 98.6432H160.805V97.6602H161.543C162.526 97.6602 162.772 97.4144 162.772 95.9397V87.3374C162.772 84.8796 161.788 83.6507 159.576 83.6507C158.101 83.6507 156.872 84.3881 156.135 85.6169C155.889 86.1084 155.889 86.8458 155.889 87.5831V95.6938C155.889 96.9229 156.135 97.4144 157.118 97.4144H157.855V98.3976H149.006V97.4144C150.972 97.4144 151.218 97.1685 151.218 95.4482V84.8796C151.218 83.4049 150.972 83.159 150.235 83.159L149.006 82.9134V81.9302L154.906 80.9472L155.397 83.4049L155.889 83.159C157.855 81.9302 159.33 80.9472 161.297 80.9472C164.492 80.9472 166.459 82.9134 166.459 86.3543V95.4482C166.459 97.1685 166.705 97.1685 168.917 97.4144V98.6432H169.654ZM178.504 107C176.291 107 174.325 106.508 172.85 105.771C171.621 105.034 170.638 103.559 170.638 102.084C170.638 99.6264 173.342 98.8891 174.571 98.6432C173.096 98.3976 171.621 97.1685 171.621 95.6938C171.621 94.465 172.85 93.2362 175.062 92.4988C173.096 92.253 171.129 90.5325 171.129 87.5831C171.129 84.8796 173.096 81.6844 178.749 81.6844C180.47 81.6844 182.437 82.1761 183.42 82.6676L187.599 81.1929L187.845 81.4387L187.107 83.8964L184.649 84.3881H184.403C184.895 84.8796 185.386 86.1084 185.386 87.3374C185.386 92.4988 179.733 92.9903 178.012 92.9903H176.291C175.8 92.9903 174.571 93.4818 174.571 94.465C174.571 94.9565 174.817 95.6938 176.783 95.6938H179.979C182.928 95.6938 186.616 96.677 186.616 101.101C186.616 103.313 185.632 105.034 183.666 106.017C182.928 106.508 180.962 107 178.504 107ZM178.995 98.8891C177.275 98.8891 176.291 99.1349 175.8 99.3806C175.062 99.8723 174.817 100.61 174.817 101.593C174.817 104.05 176.783 105.525 179.487 105.525C181.454 105.525 183.912 104.542 183.912 101.593C183.912 99.1349 180.962 98.8891 178.995 98.8891ZM178.504 82.4217C177.029 82.4217 175.554 83.6507 175.554 86.8458C175.554 89.3036 176.783 91.0242 178.504 91.0242C180.224 91.0242 181.454 89.3036 181.454 86.8458C181.454 83.6507 179.979 82.4217 178.504 82.4217ZM106.48 27.1213C105.989 27.1213 105.743 27.1213 105.251 26.8755C104.514 26.6298 104.022 25.6466 104.022 23.9261V15.8155C104.022 13.3577 103.285 10.8999 97.8767 10.8999C93.2062 10.8999 90.2564 13.1119 90.2564 15.0781C90.2564 16.307 91.9772 17.0444 92.7146 17.0444C93.2062 17.0444 93.6979 16.5528 93.9436 15.8155C94.6811 13.3577 95.6644 12.3745 97.1393 12.3745C97.8767 12.3745 99.5973 12.6203 99.5973 15.3239V17.0444C98.1224 17.7817 96.1559 18.519 94.1895 19.2564L93.2062 19.5022C90.7482 20.2394 89.7648 21.7141 89.7648 23.6805C89.7648 26.1381 91.2397 28.596 94.9269 28.596C96.8934 28.596 98.3683 27.6128 99.5973 26.6298L99.8432 26.384C100.335 27.3672 100.826 28.3502 102.301 28.3502C103.776 28.3502 105.743 27.8587 106.726 27.3672L106.48 26.384C106.726 27.1213 106.726 27.1213 106.48 27.1213ZM100.089 18.7648V23.6805C100.089 25.8925 98.6142 26.6298 97.385 26.6298C95.6644 26.6298 94.6811 25.4008 94.6811 23.4346C94.6811 21.7141 95.1726 20.9768 96.6475 20.2394C97.385 19.9938 97.8767 19.7479 98.6142 19.5022C99.1057 19.2564 99.5973 19.0106 100.089 18.7648Z" fill="white"/>
</svg>
