<svg width="20" height="21" viewBox="0 0 20 21" fill="none" xmlns="http://www.w3.org/2000/svg">
<path d="M19.374 9.54455H11.4575C11.1125 9.54455 10.8325 9.26456 10.8325 8.91957C10.8325 8.57458 11.1125 8.29459 11.4575 8.29459H19.374C19.719 8.29459 19.999 8.57458 19.999 8.91957C19.999 9.26456 19.719 9.54455 19.374 9.54455Z" fill="#888888"/>
<path d="M16.2498 12.6696C16.0898 12.6696 15.9299 12.6087 15.8081 12.4864C15.564 12.2421 15.564 11.8463 15.8081 11.6022L18.4914 8.91898L15.8081 6.23565C15.564 5.99151 15.564 5.59571 15.8081 5.35158C16.0524 5.10729 16.4482 5.10729 16.6923 5.35158L19.8172 8.47648C20.0614 8.72062 20.0614 9.11642 19.8172 9.36055L16.6923 12.4855C16.5698 12.6087 16.4099 12.6696 16.2498 12.6696Z" fill="#888888"/>
<path d="M6.66651 20.169C6.48814 20.169 6.31893 20.144 6.14987 20.0915L1.13491 18.4207C0.452562 18.1823 0 17.5465 0 16.8358V1.83625C0 0.917091 0.747505 0.169586 1.66667 0.169586C1.84488 0.169586 2.0141 0.19461 2.18331 0.247098L7.19811 1.91789C7.88062 2.15622 8.33303 2.79203 8.33303 3.50277V18.5023C8.33303 19.4215 7.58568 20.169 6.66651 20.169ZM1.66667 1.41955C1.43749 1.41955 1.24996 1.60707 1.24996 1.83625V16.8358C1.24996 17.0133 1.36913 17.1782 1.53911 17.2374L6.53056 18.9007C6.56642 18.9123 6.61311 18.919 6.66651 18.919C6.89569 18.919 7.08307 18.7315 7.08307 18.5023V3.50277C7.08307 3.32531 6.9639 3.16037 6.79392 3.10117L1.80247 1.43786C1.76661 1.42626 1.71992 1.41955 1.66667 1.41955Z" fill="#888888"/>
<path d="M12.7087 6.8361C12.3637 6.8361 12.0837 6.55611 12.0837 6.21112V2.46123C12.0837 1.88706 11.6163 1.41955 11.0422 1.41955H1.66746C1.32247 1.41955 1.04248 1.13956 1.04248 0.794567C1.04248 0.449576 1.32247 0.169586 1.66746 0.169586H11.0422C12.3063 0.169586 13.3337 1.19708 13.3337 2.46123V6.21112C13.3337 6.55611 13.0537 6.8361 12.7087 6.8361Z" fill="#888888"/>
<path d="M11.0408 17.6686H7.7075C7.36251 17.6686 7.08252 17.3886 7.08252 17.0436C7.08252 16.6986 7.36251 16.4187 7.7075 16.4187H11.0408C11.615 16.4187 12.0824 15.9511 12.0824 15.377V11.6271C12.0824 11.2821 12.3624 11.0021 12.7073 11.0021C13.0523 11.0021 13.3323 11.2821 13.3323 11.6271V15.377C13.3323 16.6411 12.305 17.6686 11.0408 17.6686Z" fill="#888888"/>
</svg>
