<svg width="30" height="30" viewBox="0 0 30 30" fill="none" xmlns="http://www.w3.org/2000/svg">
<path d="M11.25 15.0007H18.75" stroke="black" stroke-width="1.25" stroke-linecap="round" stroke-linejoin="round"/>
<path d="M11.25 18.7507H18.75" stroke="black" stroke-width="1.25" stroke-linecap="round" stroke-linejoin="round"/>
<path d="M6.5625 4.68823H23.4375C23.6861 4.68823 23.9246 4.787 24.1004 4.96282C24.2762 5.13864 24.375 5.37709 24.375 5.62573V23.4382C24.375 24.1842 24.0787 24.8995 23.5512 25.427C23.0238 25.9544 22.3084 26.2507 21.5625 26.2507H8.4375C7.69158 26.2507 6.97621 25.9544 6.44876 25.427C5.92132 24.8995 5.625 24.1842 5.625 23.4382V5.62573C5.625 5.37709 5.72377 5.13864 5.89959 4.96282C6.0754 4.787 6.31386 4.68823 6.5625 4.68823Z" stroke="black" stroke-width="1.25" stroke-linecap="round" stroke-linejoin="round"/>
<path d="M9.375 2.81323V6.56323" stroke="black" stroke-width="1.25" stroke-linecap="round" stroke-linejoin="round"/>
<path d="M15 2.81323V6.56323" stroke="black" stroke-width="1.25" stroke-linecap="round" stroke-linejoin="round"/>
<path d="M20.625 2.81323V6.56323" stroke="black" stroke-width="1.25" stroke-linecap="round" stroke-linejoin="round"/>
</svg>
