<svg width="64" height="64" viewBox="0 0 64 64" fill="none" xmlns="http://www.w3.org/2000/svg">
<rect width="64" height="64.001" rx="32" fill="#5FA777"/>
<path d="M32.2 44.352C30.152 44.352 28.3867 43.8773 26.904 42.928C25.432 41.968 24.3013 40.6293 23.512 38.912C22.7333 37.1947 22.344 35.1947 22.344 32.912C22.344 30.352 22.7493 28.1493 23.56 26.304C24.3707 24.448 25.5227 23.024 27.016 22.032C28.52 21.04 30.3013 20.544 32.36 20.544C33.8853 20.544 35.2933 20.8213 36.584 21.376C37.8747 21.9307 38.92 22.7253 39.72 23.76C40.52 24.7947 40.9413 26.048 40.984 27.52H36.04C35.7627 26.592 35.3307 25.904 34.744 25.456C34.1573 25.008 33.4053 24.784 32.488 24.784C31.496 24.784 30.6693 25.072 30.008 25.648C29.3467 26.2133 28.8773 26.9813 28.6 27.952C28.3333 28.9227 28.2747 30.0053 28.424 31.2C28.808 30.816 29.2613 30.496 29.784 30.24C30.3173 29.984 30.888 29.792 31.496 29.664C32.104 29.5253 32.728 29.456 33.368 29.456C34.9573 29.456 36.3493 29.7493 37.544 30.336C38.7387 30.9227 39.6667 31.7387 40.328 32.784C41 33.8293 41.336 35.0507 41.336 36.448C41.336 37.9413 40.9467 39.2853 40.168 40.48C39.3893 41.6747 38.312 42.6187 36.936 43.312C35.56 44.0053 33.9813 44.352 32.2 44.352ZM31.992 40.256C32.632 40.256 33.224 40.1067 33.768 39.808C34.3227 39.4987 34.7653 39.0773 35.096 38.544C35.4267 38 35.592 37.3867 35.592 36.704C35.592 35.9467 35.4213 35.328 35.08 34.848C34.7493 34.368 34.312 34.016 33.768 33.792C33.224 33.5573 32.6373 33.44 32.008 33.44C31.4427 33.44 30.888 33.568 30.344 33.824C29.8 34.0693 29.352 34.3733 29 34.736C28.648 35.088 28.472 35.4347 28.472 35.776C28.472 36.736 28.616 37.552 28.904 38.224C29.2027 38.8853 29.6187 39.392 30.152 39.744C30.6853 40.0853 31.2987 40.256 31.992 40.256Z" fill="#F6F6F6"/>
</svg>
