<svg width="56" height="56" viewBox="0 0 56 56" fill="none" xmlns="http://www.w3.org/2000/svg">
<rect width="56" height="56" rx="28" fill="#5FA777"/>
<path d="M26.928 26.88C28.016 26.88 28.8907 26.6027 29.552 26.048C30.2347 25.4933 30.576 24.736 30.576 23.776C30.576 22.816 30.256 22.0587 29.616 21.504C28.9973 20.9493 28.208 20.672 27.248 20.672C26.2667 20.672 25.456 20.96 24.816 21.536C24.176 22.112 23.792 22.9547 23.664 24.064L19.216 23.744C19.3867 21.632 20.1867 20.0107 21.616 18.88C23.0453 17.728 24.9227 17.152 27.248 17.152C29.5947 17.152 31.4827 17.7173 32.912 18.848C34.3627 19.9787 35.088 21.5573 35.088 23.584C35.088 24.6933 34.7787 25.6427 34.16 26.432C33.5627 27.2213 32.752 27.8187 31.728 28.224V28.352C32.9013 28.6933 33.8507 29.312 34.576 30.208C35.3013 31.0827 35.664 32.2027 35.664 33.568C35.664 35.872 34.8853 37.6 33.328 38.752C31.792 39.8827 29.7547 40.448 27.216 40.448C24.72 40.448 22.704 39.8613 21.168 38.688C19.632 37.4933 18.736 35.7013 18.48 33.312L23.056 32.992C23.2053 34.3573 23.6427 35.36 24.368 36C25.1147 36.6187 26.064 36.928 27.216 36.928C28.3253 36.928 29.232 36.6187 29.936 36C30.6613 35.3813 31.024 34.5493 31.024 33.504C31.024 32.3733 30.6613 31.5307 29.936 30.976C29.2107 30.4 28.208 30.112 26.928 30.112H24.912V26.88H26.928Z" fill="white"/>
</svg>
