<svg width="26" height="26" viewBox="0 0 26 26" fill="none" xmlns="http://www.w3.org/2000/svg">
<path d="M21.6429 2H4.35714C3.0558 2 2 3.0558 2 4.35714V21.6429C2 22.9442 3.0558 24 4.35714 24H21.6429C22.9442 24 24 22.9442 24 21.6429V4.35714C24 3.0558 22.9442 2 21.6429 2ZM19.2415 9.79821C19.2513 9.93571 19.2513 10.0781 19.2513 10.2156C19.2513 14.4732 16.0103 19.379 10.0879 19.379C8.26116 19.379 6.56696 18.8487 5.14286 17.9353C5.40313 17.9647 5.65357 17.9746 5.91875 17.9746C7.42634 17.9746 8.81116 17.4638 9.91607 16.5996C8.50179 16.5701 7.31339 15.642 6.9058 14.3652C7.40179 14.4388 7.84866 14.4388 8.35938 14.3062C6.88616 14.0067 5.78125 12.7103 5.78125 11.1437V11.1045C6.20848 11.3451 6.70937 11.4924 7.23482 11.5121C6.79307 11.2182 6.43093 10.8196 6.18072 10.3517C5.93052 9.88388 5.80002 9.36136 5.80089 8.8308C5.80089 8.2317 5.95804 7.6817 6.23795 7.20536C7.82411 9.15982 10.2058 10.4366 12.8772 10.5741C12.4205 8.38884 14.0558 6.61607 16.0201 6.61607C16.9482 6.61607 17.783 7.00402 18.3723 7.63259C19.0991 7.49509 19.7964 7.225 20.4152 6.8567C20.1746 7.60312 19.6688 8.2317 19.0009 8.62946C19.6491 8.56071 20.2777 8.37902 20.8571 8.12857C20.4201 8.77187 19.8701 9.34152 19.2415 9.79821Z" fill="white" fill-opacity="0.9"/>
</svg>
