<svg width="56" height="56" viewBox="0 0 56 56" fill="none" xmlns="http://www.w3.org/2000/svg">
<rect width="56" height="56" rx="28" fill="#5FA777"/>
<path d="M35.832 40H19.576V39.136C19.576 37.4507 19.864 36.0213 20.44 34.848C21.016 33.6533 21.7307 32.6827 22.584 31.936C23.4587 31.1893 24.5147 30.432 25.752 29.664L28.312 28.032C29.208 27.4773 29.9227 26.88 30.456 26.24C31.0107 25.6 31.288 24.8533 31.288 24C31.288 22.9333 31 22.1227 30.424 21.568C29.8693 21.0133 29.048 20.736 27.96 20.736C26.8507 20.736 25.9653 21.1093 25.304 21.856C24.6427 22.5813 24.2587 23.648 24.152 25.056L19.64 24.832C19.768 23.1893 20.2053 21.792 20.952 20.64C21.72 19.488 22.712 18.624 23.928 18.048C25.144 17.4507 26.488 17.152 27.96 17.152C30.264 17.152 32.1627 17.7173 33.656 18.848C35.1493 19.9787 35.896 21.6213 35.896 23.776C35.896 25.184 35.6293 26.3573 35.096 27.296C34.5627 28.2133 33.9653 28.9173 33.304 29.408C32.6427 29.8987 31.6293 30.56 30.264 31.392L28.056 32.8C27.0747 33.4187 26.3067 34.0373 25.752 34.656C25.1973 35.2533 24.8987 35.7653 24.856 36.192H35.832V40Z" fill="white"/>
</svg>
