<svg width="64" height="64" viewBox="0 0 64 64" fill="none" xmlns="http://www.w3.org/2000/svg">
<rect x="-0.000488281" width="64.0005" height="63.9983" rx="31.9991" fill="#FFFAC2"/>
<path d="M33.9138 39.4483C33.9648 39.6243 33.9998 39.8063 33.9998 39.9983C33.9998 41.1033 33.1048 41.9983 31.9998 41.9983C30.8948 41.9983 29.9998 41.1033 29.9998 39.9983C29.9998 38.8933 30.8948 37.9983 31.9998 37.9983C32.1638 37.9983 32.3208 38.0233 32.4738 38.0603L36.2688 34.2653C36.6598 33.8743 37.2918 33.8743 37.6828 34.2653C38.0738 34.6562 38.0738 35.2882 37.6828 35.6792L33.9148 39.4483H33.9138ZM40.9998 32.1103V26.0753L42.2928 27.3683C42.4878 27.5633 42.7438 27.6613 42.9998 27.6613C43.2558 27.6613 43.5118 27.5633 43.7068 27.3683C44.0978 26.9773 44.0978 26.3453 43.7068 25.9543L41.2798 23.5263C40.5738 22.8243 39.4258 22.8223 38.7188 23.5263L36.2928 25.9533C35.9018 26.3443 35.9018 26.9763 36.2928 27.3673C36.6838 27.7583 37.3158 27.7583 37.7068 27.3673L38.9998 26.0743V30.2703C37.4188 29.1182 35.5638 28.3512 33.5828 28.0972C33.3888 28.0723 33.1948 28.0693 32.9998 28.0542V23.0763L34.2928 24.3693C34.4878 24.5643 34.7438 24.6623 34.9998 24.6623C35.2558 24.6623 35.5118 24.5643 35.7068 24.3693C36.0978 23.9783 36.0978 23.3463 35.7068 22.9553L33.2798 20.5273C32.5748 19.8253 31.4258 19.8233 30.7188 20.5273L28.2928 22.9543C27.9018 23.3453 27.9018 23.9773 28.2928 24.3683C28.6838 24.7593 29.3158 24.7593 29.7068 24.3683L30.9998 23.0753V28.0442C28.8378 28.2282 26.7638 28.9913 24.9998 30.2572V26.0753L26.2928 27.3683C26.4878 27.5633 26.7438 27.6613 26.9998 27.6613C27.2558 27.6613 27.5118 27.5633 27.7068 27.3683C28.0978 26.9773 28.0978 26.3453 27.7068 25.9543L25.2798 23.5263C24.5748 22.8243 23.4258 22.8223 22.7188 23.5263L20.2928 25.9553C19.9018 26.3463 19.9018 26.9783 20.2928 27.3693C20.6838 27.7603 21.3158 27.7603 21.7068 27.3693L22.9998 26.0763V32.0773C21.0838 34.2563 19.9998 37.0653 19.9998 39.9983V40.1193C20.0228 42.2583 21.8178 43.9983 24.0018 43.9983H26.9998C27.5518 43.9983 27.9998 43.5513 27.9998 42.9983C27.9998 42.4453 27.5518 41.9983 26.9998 41.9983H24.0018C22.9088 41.9983 22.0118 41.1453 21.9998 39.9983C21.9998 37.5023 22.9368 35.1103 24.5978 33.2793C27.0768 30.6863 30.4038 29.7033 33.3278 30.0843C35.6278 30.3793 37.7578 31.5442 39.3158 33.2212C40.2698 34.2582 41.0208 35.5003 41.4838 36.8873C41.8348 37.9373 42.0078 39.0123 41.9988 40.0813C41.9898 41.1383 41.0908 41.9983 39.9958 41.9983H36.9998C36.4478 41.9983 35.9998 42.4453 35.9998 42.9983C35.9998 43.5513 36.4478 43.9983 36.9998 43.9983H39.9958C42.1838 43.9983 43.9798 42.2493 43.9988 40.0993C44.0098 38.8073 43.8018 37.5133 43.3798 36.2523C42.8618 34.7013 42.0388 33.3022 40.9988 32.1112L40.9998 32.1103Z" fill="#595200"/>
</svg>
