<svg width="64" height="64" viewBox="0 0 64 64" fill="none" xmlns="http://www.w3.org/2000/svg">
<rect width="64" height="64" rx="32" fill="#FDEDED"/>
<path d="M32 20C29.6266 20 27.3066 20.7038 25.3332 22.0224C23.3598 23.3409 21.8217 25.2151 20.9135 27.4078C20.0052 29.6005 19.7676 32.0133 20.2306 34.3411C20.6936 36.6689 21.8365 38.807 23.5147 40.4853C25.193 42.1635 27.3311 43.3064 29.6589 43.7694C31.9867 44.2324 34.3995 43.9948 36.5922 43.0865C38.7849 42.1783 40.6591 40.6402 41.9776 38.6668C43.2962 36.6935 44 34.3734 44 32C43.9966 28.8185 42.7312 25.7682 40.4815 23.5185C38.2318 21.2688 35.1815 20.0034 32 20ZM32 42C30.0222 42 28.0888 41.4135 26.4443 40.3147C24.7998 39.2159 23.5181 37.6541 22.7612 35.8268C22.0043 33.9996 21.8063 31.9889 22.1922 30.0491C22.578 28.1093 23.5304 26.3275 24.9289 24.9289C26.3275 23.5304 28.1093 22.578 30.0491 22.1921C31.9889 21.8063 33.9996 22.0043 35.8268 22.7612C37.6541 23.5181 39.2159 24.7998 40.3147 26.4443C41.4135 28.0888 42 30.0222 42 32C41.9971 34.6513 40.9426 37.1931 39.0679 39.0678C37.1931 40.9426 34.6513 41.9971 32 42Z" fill="#E84646"/>
<path d="M32 25C31.7348 25 31.4804 25.1054 31.2929 25.2929C31.1054 25.4804 31 25.7348 31 26V34C31 34.2652 31.1054 34.5196 31.2929 34.7071C31.4804 34.8946 31.7348 35 32 35C32.2652 35 32.5196 34.8946 32.7071 34.7071C32.8946 34.5196 33 34.2652 33 34V26C33 25.7348 32.8946 25.4804 32.7071 25.2929C32.5196 25.1054 32.2652 25 32 25Z" fill="#E84646"/>
<path d="M33 38C33 37.4477 32.5523 37 32 37C31.4477 37 31 37.4477 31 38C31 38.5523 31.4477 39 32 39C32.5523 39 33 38.5523 33 38Z" fill="#E84646"/>
</svg>
