<svg width="20" height="21" viewBox="0 0 20 21" fill="none" xmlns="http://www.w3.org/2000/svg">
<path d="M7.5 10.1697H12.5" stroke="#888888" stroke-width="1.25" stroke-linecap="round" stroke-linejoin="round"/>
<path d="M7.5 12.6697H12.5" stroke="#888888" stroke-width="1.25" stroke-linecap="round" stroke-linejoin="round"/>
<path d="M4.375 3.29474H15.625C15.7908 3.29474 15.9497 3.36059 16.0669 3.4778C16.1842 3.59501 16.25 3.75398 16.25 3.91974V15.7947C16.25 16.292 16.0525 16.7689 15.7008 17.1206C15.3492 17.4722 14.8723 17.6697 14.375 17.6697H5.625C5.12772 17.6697 4.65081 17.4722 4.29917 17.1206C3.94754 16.7689 3.75 16.292 3.75 15.7947V3.91974C3.75 3.75398 3.81585 3.59501 3.93306 3.4778C4.05027 3.36059 4.20924 3.29474 4.375 3.29474Z" stroke="#888888" stroke-width="1.25" stroke-linecap="round" stroke-linejoin="round"/>
<path d="M6.25 2.04474V4.54474" stroke="#888888" stroke-width="1.25" stroke-linecap="round" stroke-linejoin="round"/>
<path d="M10 2.04474V4.54474" stroke="#888888" stroke-width="1.25" stroke-linecap="round" stroke-linejoin="round"/>
<path d="M13.75 2.04474V4.54474" stroke="#888888" stroke-width="1.25" stroke-linecap="round" stroke-linejoin="round"/>
</svg>
