<svg width="64" height="64" viewBox="0 0 64 64" fill="none" xmlns="http://www.w3.org/2000/svg">
<rect width="64" height="64.001" rx="32" fill="#EEFFF4"/>
<path d="M40.5 36.001H37V32.501C37 30.571 35.43 29.001 33.5 29.001H30.5C28.57 29.001 27 30.571 27 32.501V33.001H23.5C21.57 33.001 20 34.571 20 36.501V40.501C20 42.431 21.57 44.001 23.5 44.001H40.5C42.43 44.001 44 42.431 44 40.501V39.501C44 37.571 42.43 36.001 40.5 36.001ZM29 32.501C29 31.674 29.673 31.001 30.5 31.001H33.5C34.327 31.001 35 31.674 35 32.501V42.001H29V32.501ZM22 40.501V36.501C22 35.674 22.673 35.001 23.5 35.001H27V42.001H23.5C22.673 42.001 22 41.328 22 40.501ZM42 40.501C42 41.328 41.327 42.001 40.5 42.001H37V38.001H40.5C41.327 38.001 42 38.674 42 39.501V40.501ZM28.041 22.858C28.137 22.596 28.387 22.421 28.667 22.421H30.668L31.376 20.434C31.473 20.173 31.722 20 32.001 20C32.28 20 32.529 20.173 32.626 20.434L33.334 22.421H35.335C35.615 22.421 35.865 22.596 35.961 22.859C36.057 23.122 35.978 23.417 35.764 23.598L34.187 24.883L34.839 26.87C34.928 27.139 34.838 27.435 34.613 27.608C34.388 27.781 34.079 27.793 33.842 27.639L32.006 26.443L30.201 27.651C30.089 27.726 29.959 27.764 29.83 27.764C29.689 27.764 29.548 27.719 29.43 27.631C29.203 27.461 29.109 27.167 29.194 26.897L29.821 24.886L28.236 23.596C28.023 23.415 27.944 23.12 28.041 22.858Z" fill="#0F6609"/>
</svg>
