<svg width="20" height="24" viewBox="0 0 20 24" fill="none" xmlns="http://www.w3.org/2000/svg">
<path d="M1.29035 9.87235C1.36667 9.872 1.36667 9.872 1.44454 9.87164C1.52872 9.87161 1.52872 9.87161 1.61461 9.87157C1.70379 9.87127 1.70379 9.87127 1.79477 9.87096C1.96014 9.8704 2.12551 9.87014 2.29087 9.86993C2.4691 9.86966 2.64733 9.86912 2.82556 9.86862C3.25619 9.86749 3.68683 9.86681 4.11746 9.86622C4.2391 9.86605 4.36074 9.86586 4.48237 9.86567C5.23773 9.86451 5.99309 9.86349 6.74845 9.86291C6.92343 9.86278 7.09842 9.86264 7.27341 9.8625C7.3169 9.86247 7.36039 9.86243 7.4052 9.8624C8.10955 9.86181 8.8139 9.86028 9.51824 9.85835C10.2414 9.85639 10.9646 9.8553 11.6878 9.85506C12.0938 9.8549 12.4998 9.85436 12.9058 9.85283C13.2516 9.85154 13.5975 9.85103 13.9433 9.85155C14.1197 9.85179 14.296 9.85166 14.4724 9.85051C14.6639 9.84927 14.8553 9.84984 15.0468 9.85058C15.1022 9.84994 15.1576 9.84929 15.2147 9.84863C15.57 9.85199 15.8166 9.92243 16.1184 10.1099C16.1604 10.1356 16.2023 10.1613 16.2456 10.1879C16.512 10.4617 16.6783 10.7803 16.6803 11.1621C16.6807 11.2177 16.6811 11.2732 16.6816 11.3304C16.6818 11.3921 16.682 11.4537 16.6821 11.5154C16.6825 11.5802 16.6829 11.6451 16.6833 11.71C16.6845 11.9231 16.6852 12.1363 16.6859 12.3495C16.6861 12.4229 16.6864 12.4964 16.6866 12.5699C16.6876 12.8757 16.6885 13.1816 16.689 13.4874C16.6898 13.925 16.6913 14.3627 16.6939 14.8003C16.6957 15.1084 16.6966 15.4164 16.6969 15.7244C16.697 15.9082 16.6976 16.092 16.6991 16.2758C16.7005 16.449 16.7008 16.6221 16.7002 16.7953C16.7002 16.8885 16.7013 16.9817 16.7025 17.0749C16.7 17.4447 16.6406 17.7026 16.4421 18.0157C16.4163 18.0577 16.3906 18.0996 16.364 18.1429C16.0998 18.3999 15.7824 18.576 15.4122 18.5769C15.3613 18.5771 15.3104 18.5773 15.258 18.5776C15.1738 18.5776 15.1738 18.5776 15.0879 18.5776C14.9987 18.5779 14.9987 18.5779 14.9077 18.5783C14.7424 18.5788 14.577 18.5791 14.4116 18.5793C14.2334 18.5796 14.0552 18.5801 13.8769 18.5806C13.4463 18.5817 13.0157 18.5824 12.585 18.583C12.4634 18.5832 12.3418 18.5834 12.2201 18.5835C11.4648 18.5847 10.7094 18.5857 9.95406 18.5863C9.77907 18.5864 9.60408 18.5866 9.4291 18.5867C9.38561 18.5868 9.34211 18.5868 9.2973 18.5868C8.59295 18.5874 7.88861 18.5889 7.18426 18.5909C6.46109 18.5928 5.73793 18.5939 5.01475 18.5942C4.60873 18.5943 4.20272 18.5949 3.7967 18.5964C3.45087 18.5977 3.10504 18.5982 2.7592 18.5977C2.58282 18.5974 2.40646 18.5976 2.23008 18.5987C2.03861 18.5999 1.84719 18.5994 1.65571 18.5986C1.60031 18.5993 1.5449 18.5999 1.48782 18.6006C1.13255 18.5972 0.885955 18.5268 0.584074 18.3394C0.542117 18.3136 0.500161 18.2879 0.456932 18.2613C0.190513 17.9875 0.0241938 17.6689 0.0221601 17.2871C0.0217625 17.2315 0.0213648 17.176 0.0209552 17.1188C0.0207501 17.0571 0.0205514 16.9955 0.0203583 16.9338C0.0199929 16.869 0.0196106 16.8041 0.0192127 16.7393C0.0180011 16.5261 0.0172925 16.3129 0.0166334 16.0998C0.0163855 16.0263 0.016137 15.9528 0.0158876 15.8793C0.0148876 15.5735 0.0140215 15.2677 0.013501 14.9618C0.0127511 14.5242 0.0112196 14.0865 0.00858169 13.6489C0.00678871 13.3409 0.00588896 13.0328 0.00564494 12.7248C0.00547649 12.541 0.00492578 12.3572 0.00342105 12.1734C0.0020237 12.0003 0.00174083 11.8271 0.00228297 11.654C0.00229793 11.5607 0.00117104 11.4675 0 11.3743C0.00251886 11.0046 0.0619465 10.7466 0.260441 10.4335C0.286187 10.3915 0.311934 10.3496 0.33846 10.3063C0.602655 10.0493 0.920099 9.87326 1.29035 9.87235ZM11.2784 12.4822C11.0301 12.7707 10.9228 13.0441 10.9307 13.4276C10.9666 13.8157 11.1051 14.1099 11.4026 14.3633C11.7309 14.59 12.0956 14.7604 12.4542 14.9336C12.5825 14.9961 12.6879 15.0475 12.7896 15.1493C12.8154 15.3911 12.8154 15.3911 12.729 15.5105C12.4888 15.6795 12.1678 15.6301 11.8935 15.587C11.5465 15.5169 11.2235 15.4171 10.8941 15.288C10.8941 15.6236 10.8941 15.9593 10.8941 16.3051C10.9875 16.3423 11.081 16.3795 11.1773 16.4178C11.2298 16.4387 11.2824 16.4596 11.3365 16.4812C11.8833 16.6711 12.6228 16.6572 13.1595 16.4438C13.5257 16.2564 13.8397 15.9788 13.97 15.5793C14.0511 15.1813 14.0154 14.8103 13.8015 14.4652C13.5002 14.0634 12.9702 13.8691 12.5282 13.6584C12.2261 13.5121 12.2261 13.5121 12.1424 13.3924C12.1337 13.2219 12.1337 13.2219 12.1424 13.0688C12.559 12.9456 12.9684 13.0121 13.3648 13.167C13.4915 13.2175 13.4915 13.2175 13.6681 13.2075C13.7147 13.0959 13.7609 12.9842 13.8068 12.8723C13.82 12.8408 13.8332 12.8092 13.8469 12.7768C13.9128 12.615 13.9455 12.5062 13.9455 12.329C13.8358 12.2912 13.7259 12.2537 13.6161 12.2164C13.5853 12.2057 13.5546 12.1951 13.5229 12.1841C12.782 11.9335 11.8922 11.954 11.2784 12.4822ZM2.61833 12.0979C2.79484 12.4194 2.79484 12.4194 2.98567 12.7293C3.02138 12.7838 3.02138 12.7838 3.05781 12.8395C3.08252 12.877 3.10722 12.9145 3.13268 12.9532C3.15849 12.9929 3.1843 13.0326 3.21089 13.0735C3.34035 13.2724 3.47141 13.4699 3.60603 13.6653C3.63001 13.7007 3.65399 13.7361 3.6787 13.7726C3.72406 13.8395 3.77011 13.9059 3.8169 13.9718C3.96482 14.1917 3.96482 14.1917 3.93851 14.3431C3.91479 14.3803 3.89107 14.4175 3.86663 14.4558C3.83725 14.5026 3.80787 14.5493 3.7776 14.5975C3.741 14.6516 3.70421 14.7054 3.66725 14.7592C3.62572 14.8205 3.58425 14.882 3.54282 14.9434C3.52058 14.9763 3.49834 15.0092 3.47543 15.0432C3.34594 15.2363 3.21907 15.4312 3.09223 15.6261C3.05546 15.6823 3.05546 15.6823 3.01794 15.7397C2.84759 16.0015 2.68495 16.2674 2.52587 16.5363C3.23796 16.6328 3.23796 16.6328 3.9151 16.4847C4.05703 16.3451 4.12491 16.1711 4.19462 15.9876C4.27209 15.8052 4.38572 15.6441 4.49367 15.4787C4.53338 15.4153 4.57294 15.3519 4.61232 15.2883C4.64087 15.2424 4.66942 15.1966 4.69883 15.1493C4.74173 15.2067 4.78394 15.2646 4.82597 15.3226C4.8566 15.3638 4.88724 15.4049 4.9188 15.4473C5.00626 15.5749 5.06281 15.7048 5.12035 15.8482C5.28812 16.2365 5.28812 16.2365 5.57726 16.5363C6.00878 16.6515 6.48024 16.5925 6.91802 16.5363C6.7739 16.2727 6.60931 16.0297 6.43546 15.785C6.37814 15.7034 6.32083 15.6217 6.26353 15.5401C6.17478 15.4139 6.08581 15.288 5.99625 15.1624C5.91098 15.0428 5.82643 14.9227 5.74197 14.8025C5.71545 14.7658 5.68893 14.7291 5.66161 14.6912C5.63765 14.6569 5.61369 14.6226 5.589 14.5873C5.5677 14.5573 5.54639 14.5274 5.52445 14.4965C5.48479 14.4095 5.48479 14.4095 5.49222 14.3216C5.54217 14.1968 5.60685 14.0887 5.67785 13.9745C5.70828 13.9253 5.7387 13.8761 5.77005 13.8254C5.80306 13.7726 5.83608 13.7197 5.86911 13.6669C5.90257 13.613 5.93601 13.5591 5.96943 13.5051C6.19906 13.135 6.43098 12.7664 6.66578 12.3996C6.77487 12.2583 6.77487 12.2583 6.82556 12.0979C6.61466 12.0871 6.40383 12.0806 6.19274 12.0748C6.13293 12.0717 6.07313 12.0686 6.01151 12.0654C5.7114 12.0477 5.7114 12.0477 5.44814 12.1641C5.38588 12.2622 5.3437 12.3601 5.29986 12.4677C5.25389 12.5506 5.20694 12.6328 5.15917 12.7146C5.08554 12.8454 5.01215 12.9764 4.93912 13.1075C4.91543 13.1495 4.89174 13.1915 4.86733 13.2347C4.84604 13.2728 4.82475 13.3109 4.80282 13.3501C4.74506 13.4386 4.74506 13.4386 4.6526 13.4849C4.6402 13.4442 4.62781 13.4035 4.61504 13.3616C4.5627 13.2147 4.50141 13.0944 4.42125 12.9611C4.39464 12.9166 4.36803 12.872 4.34061 12.8261C4.31293 12.7803 4.28525 12.7345 4.25672 12.6874C4.20174 12.5956 4.14678 12.5039 4.09184 12.4121C4.06749 12.3718 4.04314 12.3314 4.01805 12.2898C3.98085 12.2271 3.94549 12.1631 3.91286 12.0979C3.48567 12.0979 3.05848 12.0979 2.61833 12.0979ZM7.47282 12.0979C7.47282 13.5625 7.47282 15.0272 7.47282 16.5363C8.43401 16.5363 9.3952 16.5363 10.3855 16.5363C10.3855 16.2159 10.3855 15.8955 10.3855 15.5654C9.82101 15.5654 9.2565 15.5654 8.67488 15.5654C8.67488 14.4211 8.67488 13.2768 8.67488 12.0979C8.2782 12.0979 7.88152 12.0979 7.47282 12.0979Z" fill="#626C70"/>
<path d="M4.05933 0.538913C4.17263 0.5374 4.28592 0.535781 4.39921 0.534064C4.73778 0.52941 5.07635 0.527086 5.41495 0.52517C5.57503 0.5242 5.73512 0.522931 5.8952 0.521688C6.42837 0.517641 6.96154 0.514202 7.49473 0.512724C7.52876 0.512628 7.5628 0.512533 7.59786 0.512434C7.63197 0.512338 7.66608 0.512242 7.70122 0.512143C7.77032 0.511947 7.83942 0.51175 7.90852 0.511552C7.94279 0.511454 7.97707 0.511356 8.01238 0.511255C8.56694 0.509559 9.12136 0.503627 9.67586 0.495887C10.2472 0.487978 10.8184 0.483782 11.3898 0.48318C11.7098 0.482755 12.0297 0.480765 12.3497 0.47468C14.582 0.433814 14.582 0.433814 15.0996 0.924677C15.2435 1.08432 15.3673 1.24615 15.4744 1.4325C15.6914 1.73374 15.9981 1.93006 16.3114 2.1195C17.7262 3.00846 19.3536 4.28902 19.7496 6.00733C19.9979 7.18742 20.0015 8.41461 20.0001 9.61537C20.0001 9.68428 20.0001 9.68428 20.0001 9.75458C19.9984 10.9002 19.9637 12.0442 19.9155 13.1887C19.8843 13.9299 19.8626 14.6708 19.8496 15.4126C19.8487 15.4618 19.8478 15.5109 19.8469 15.5616C19.8435 15.7594 19.8401 15.9571 19.8368 16.1549C19.8109 17.7015 19.7751 19.2477 19.7165 20.7933C19.7122 20.9099 19.7082 21.0265 19.7043 21.1431C19.6982 21.3232 19.6912 21.5033 19.6836 21.6834C19.681 21.7483 19.6786 21.8132 19.6765 21.8781C19.6602 22.3798 19.594 22.8326 19.2163 23.1938C18.9327 23.387 18.7035 23.5231 18.3554 23.5237C18.3009 23.5239 18.2464 23.5241 18.1903 23.5243C18.1302 23.5243 18.0701 23.5243 18.0082 23.5243C17.9439 23.5244 17.8796 23.5246 17.8153 23.5248C17.6383 23.5253 17.4612 23.5254 17.2842 23.5256C17.0934 23.5257 16.9026 23.5262 16.7118 23.5266C16.2508 23.5275 15.7897 23.528 15.3287 23.5284C15.1117 23.5286 14.8946 23.5288 14.6775 23.5291C13.956 23.5299 13.2345 23.5305 12.513 23.5309C12.3257 23.5309 12.1385 23.531 11.9512 23.5311C11.9047 23.5312 11.8581 23.5312 11.8102 23.5312C11.0561 23.5316 10.3021 23.5328 9.54813 23.5343C8.77413 23.5358 8.00013 23.5366 7.22613 23.5368C6.7915 23.5369 6.35689 23.5373 5.92226 23.5384C5.55211 23.5395 5.18197 23.5398 4.81181 23.5394C4.62299 23.5392 4.43418 23.5393 4.24535 23.5401C4.07234 23.541 3.89936 23.5409 3.72635 23.5402C3.63442 23.54 3.54248 23.5408 3.45055 23.5416C2.96388 23.5381 2.63837 23.4239 2.28217 23.0918C2.00978 22.8083 1.91318 22.5219 1.91462 22.134C1.91461 22.1033 1.9146 22.0726 1.91458 22.041C1.91465 21.9404 1.91536 21.8399 1.91609 21.7393C1.91626 21.6692 1.9164 21.5991 1.91649 21.529C1.91684 21.3453 1.91775 21.1615 1.91877 20.9777C1.91972 20.7899 1.92014 20.6021 1.92061 20.4143C1.9216 20.0463 1.92322 19.6783 1.92512 19.3103C2.15398 19.3103 2.38283 19.3103 2.61862 19.3103C2.61929 19.3921 2.61997 19.474 2.62066 19.5583C2.62306 19.8301 2.62608 20.1019 2.62952 20.3738C2.63158 20.5384 2.63339 20.703 2.63464 20.8677C2.63608 21.0574 2.63861 21.2471 2.64119 21.4368C2.64149 21.4953 2.64179 21.5539 2.64209 21.6142C2.64932 22.1569 2.64932 22.1569 2.91047 22.613C3.1285 22.7398 3.32733 22.7893 3.57844 22.7895C3.63078 22.7898 3.68312 22.7901 3.73705 22.7903C3.82262 22.7901 3.82262 22.7901 3.90991 22.7898C3.97087 22.79 4.03183 22.7902 4.09463 22.7903C4.26356 22.7908 4.43248 22.7907 4.6014 22.7905C4.78369 22.7904 4.96598 22.7908 5.14827 22.7912C5.50529 22.7918 5.86231 22.7918 6.21934 22.7917C6.50954 22.7916 6.79975 22.7917 7.08995 22.7919C7.1519 22.792 7.1519 22.792 7.21511 22.792C7.29901 22.7921 7.38291 22.7921 7.46681 22.7922C8.25371 22.7927 9.0406 22.7926 9.8275 22.7923C10.5473 22.7921 11.2671 22.7926 11.9869 22.7935C12.726 22.7944 13.4652 22.7947 14.2044 22.7946C14.6193 22.7945 15.0343 22.7946 15.4492 22.7952C15.8025 22.7958 16.1557 22.7959 16.509 22.7953C16.6892 22.795 16.8694 22.795 17.0496 22.7955C17.2147 22.796 17.3797 22.7959 17.5448 22.7952C17.6326 22.7951 17.7204 22.7956 17.8081 22.7961C18.1097 22.7942 18.3434 22.774 18.6153 22.6391C18.8371 22.3832 18.8521 22.1262 18.8527 21.7986C18.853 21.7137 18.853 21.7137 18.8533 21.627C18.8533 21.5645 18.8533 21.502 18.8533 21.4396C18.8534 21.3729 18.8536 21.3063 18.8538 21.2396C18.8543 21.0566 18.8544 20.8736 18.8546 20.6906C18.8547 20.4932 18.8552 20.2958 18.8556 20.0984C18.8565 19.6219 18.857 19.1455 18.8574 18.669C18.8576 18.4447 18.8578 18.2204 18.8581 17.9961C18.8589 17.2506 18.8595 16.5051 18.8599 15.7597C18.8599 15.5663 18.86 15.373 18.8601 15.1797C18.8601 15.1317 18.8602 15.0836 18.8602 15.0341C18.8606 14.2547 18.8617 13.4753 18.8632 12.6958C18.8648 11.8959 18.8656 11.0959 18.8658 10.2959C18.8659 9.84667 18.8663 9.39741 18.8674 8.94815C18.8684 8.56581 18.8688 8.18348 18.8684 7.80114C18.8682 7.60597 18.8682 7.41082 18.8691 7.21566C18.87 7.03714 18.8699 6.85863 18.8692 6.68011C18.8691 6.6154 18.8693 6.55069 18.8698 6.48599C18.8705 6.39827 18.87 6.31055 18.8694 6.22284C18.8694 6.14964 18.8694 6.14964 18.8695 6.07497C18.8405 5.91607 18.7882 5.86134 18.6615 5.76393C18.5183 5.7373 18.5183 5.7373 18.3565 5.74309C18.3263 5.74306 18.296 5.74303 18.2648 5.743C18.1993 5.74303 18.1337 5.74348 18.0682 5.74429C17.9639 5.74553 17.8597 5.74552 17.7554 5.74519C17.4589 5.74446 17.1625 5.74604 16.8661 5.74822C16.6845 5.74947 16.503 5.74935 16.3214 5.74847C16.2527 5.74843 16.184 5.7489 16.1152 5.74994C15.6256 5.75731 15.2139 5.69175 14.8279 5.36523C14.4742 4.98725 14.4279 4.57068 14.4319 4.07143C14.4327 3.96665 14.4323 3.86193 14.4317 3.75715C14.4305 3.53512 14.4307 3.3131 14.4312 3.09107C14.4317 2.83281 14.4317 2.57457 14.4301 2.3163C14.4298 2.21323 14.4305 2.1102 14.4313 2.00714C14.4311 1.94399 14.4308 1.88085 14.4304 1.81771C14.4305 1.7627 14.4307 1.7077 14.4308 1.65102C14.4181 1.51042 14.4181 1.51042 14.3412 1.41065C14.1639 1.28282 14.0045 1.30023 13.7909 1.30268C13.7467 1.30246 13.7024 1.30224 13.6568 1.30201C13.5081 1.30148 13.3594 1.30229 13.2107 1.30308C13.1042 1.30298 12.9977 1.3028 12.8913 1.30255C12.6017 1.3021 12.3122 1.30281 12.0227 1.30375C11.7198 1.30456 11.417 1.3044 11.1141 1.30436C10.6053 1.30441 10.0964 1.30525 9.58758 1.30651C9.0644 1.30781 8.54122 1.30847 8.01804 1.30841C7.96975 1.3084 7.96975 1.3084 7.92048 1.3084C7.87227 1.30839 7.87227 1.30839 7.82308 1.30839C7.25744 1.30833 6.69179 1.3088 6.12615 1.30957C5.88541 1.3099 5.64467 1.31006 5.40392 1.31011C5.12022 1.31021 4.83653 1.31077 4.55283 1.3117C4.44876 1.31197 4.34469 1.31209 4.24062 1.31203C4.09843 1.31199 3.95625 1.31251 3.81405 1.31318C3.75245 1.31296 3.75245 1.31296 3.6896 1.31275C3.38723 1.31509 3.10382 1.33026 2.85557 1.51914C2.67985 1.75171 2.65336 2.00019 2.65198 2.28554C2.65158 2.33013 2.65158 2.33013 2.65117 2.37562C2.65039 2.47429 2.65025 2.57295 2.65011 2.67162C2.64968 2.74273 2.64921 2.81383 2.6487 2.88494C2.64745 3.07729 2.64674 3.26965 2.64614 3.46201C2.64542 3.66329 2.64418 3.86457 2.643 4.06584C2.64084 4.44669 2.63914 4.82754 2.6376 5.20838C2.63583 5.64209 2.63355 6.0758 2.63122 6.50951C2.62645 7.4014 2.62234 8.29329 2.61862 9.18519C2.38977 9.20045 2.16091 9.2157 1.92512 9.23142C1.92084 8.24398 1.91754 7.25654 1.91554 6.26909C1.91459 5.81058 1.91329 5.35208 1.91117 4.89357C1.90933 4.49385 1.90813 4.09413 1.90772 3.6944C1.90748 3.48283 1.90692 3.27127 1.90557 3.0597C1.90431 2.86036 1.90393 2.66103 1.9042 2.46169C1.90415 2.38872 1.90379 2.31576 1.90308 2.2428C1.89952 1.85944 1.90063 1.52105 2.11005 1.18684C2.1367 1.14407 2.1367 1.14407 2.16388 1.10042C2.62164 0.477311 3.36916 0.542161 4.05933 0.538913ZM15.1478 2.29644C15.1444 2.57853 15.1419 2.86061 15.1402 3.14271C15.1395 3.23854 15.1386 3.33436 15.1374 3.43018C15.1357 3.56848 15.1349 3.70676 15.1343 3.84507C15.1336 3.88742 15.1328 3.92977 15.1321 3.9734C15.132 4.24648 15.1597 4.50073 15.2865 4.7468C15.5498 5.00935 15.8195 5.02947 16.1777 5.02944C16.221 5.0292 16.2643 5.02896 16.3089 5.02871C16.3761 5.02862 16.3761 5.02862 16.4447 5.02852C16.5874 5.02826 16.7302 5.02768 16.8729 5.02709C16.9698 5.02686 17.0668 5.02665 17.1637 5.02646C17.401 5.02595 17.6383 5.02515 17.8756 5.0242C17.6187 4.71133 17.333 4.42865 17.0468 4.14306C16.9934 4.08963 16.94 4.03619 16.8866 3.98274C16.7754 3.87142 16.664 3.76018 16.5526 3.649C16.4095 3.50618 16.2667 3.36314 16.1239 3.22005C16.014 3.10999 15.904 3.00004 15.7939 2.89012C15.7411 2.83737 15.6884 2.7846 15.6357 2.73178C15.5624 2.65841 15.489 2.58518 15.4156 2.512C15.3738 2.47026 15.3321 2.42853 15.289 2.38553C15.2101 2.29117 15.2101 2.29117 15.1478 2.29644Z" fill="#626C70"/>
</svg>
