<svg width="15" height="16" viewBox="0 0 15 16" fill="none" xmlns="http://www.w3.org/2000/svg" class=".custom-icon" >
<path d="M6.5625 4.41928H8.4375C9.12687 4.41928 9.6875 3.85866 9.6875 3.16928V1.91928C9.6875 1.22991 9.12687 0.669281 8.4375 0.669281H6.5625C5.87313 0.669281 5.3125 1.22991 5.3125 1.91928V3.16928C5.3125 3.85866 5.87313 4.41928 6.5625 4.41928ZM6.5625 1.91928H8.4375V3.16928H6.5625V1.91928ZM8.4375 11.9193H6.5625C5.87313 11.9193 5.3125 12.4799 5.3125 13.1693V14.4193C5.3125 15.1087 5.87313 15.6693 6.5625 15.6693H8.4375C9.12687 15.6693 9.6875 15.1087 9.6875 14.4193V13.1693C9.6875 12.4799 9.12687 11.9193 8.4375 11.9193ZM8.4375 14.4193H6.5625V13.1693H8.4375V14.4193ZM13.75 11.9193H11.875C11.1856 11.9193 10.625 12.4799 10.625 13.1693V14.4193C10.625 15.1087 11.1856 15.6693 11.875 15.6693H13.75C14.4394 15.6693 15 15.1087 15 14.4193V13.1693C15 12.4799 14.4394 11.9193 13.75 11.9193ZM13.75 14.4193H11.875V13.1693H13.75V14.4193ZM3.125 11.9193H1.25C0.560625 11.9193 0 12.4799 0 13.1693V14.4193C0 15.1087 0.560625 15.6693 1.25 15.6693H3.125C3.81437 15.6693 4.375 15.1087 4.375 14.4193V13.1693C4.375 12.4799 3.81437 11.9193 3.125 11.9193ZM3.125 14.4193H1.25V13.1693H3.125V14.4193ZM2.8125 10.6693H1.5625V9.10678C1.5625 8.24491 2.26375 7.54428 3.125 7.54428H6.875V5.66928H8.125V7.54428H11.875C12.7369 7.54428 13.4375 8.24491 13.4375 9.10678V10.6693H12.1875V9.10678C12.1875 8.93491 12.0469 8.79428 11.875 8.79428H8.125V10.6693H6.875V8.79428H3.125C2.9525 8.79428 2.8125 8.93491 2.8125 9.10678V10.6693Z" fill="#888" />
</svg>
