<svg width="20" height="26" viewBox="0 0 20 26" fill="none" xmlns="http://www.w3.org/2000/svg">
<path d="M2.99744 0.404749C3.1051 0.404028 3.21277 0.403198 3.32043 0.402266C3.61091 0.400126 3.90137 0.399703 4.19186 0.399736C4.43495 0.39964 4.67803 0.398779 4.92112 0.397949C5.49464 0.396038 6.06814 0.395613 6.64166 0.396055C7.23241 0.396479 7.82309 0.394101 8.41382 0.390401C8.9222 0.387332 9.43057 0.386142 9.93896 0.386421C10.2421 0.38656 10.5452 0.385963 10.8483 0.383494C11.1332 0.381244 11.418 0.381344 11.703 0.383222C11.8072 0.383519 11.9115 0.382993 12.0157 0.381566C12.9005 0.37027 12.9005 0.37027 13.2194 0.667633C13.2594 0.711659 13.2994 0.755686 13.3406 0.801047C13.5494 1.02102 13.8172 1.13897 14.0826 1.27971C14.9586 1.76835 15.7632 2.33954 16.5437 2.9687C16.5796 2.99742 16.6154 3.02615 16.6524 3.05575C18.442 4.50015 19.5565 6.24607 19.8104 8.54679C20.0505 10.8632 20.0161 13.2045 19.9565 15.5292C19.9528 15.6746 19.9492 15.8201 19.9457 15.9655C19.8958 17.9876 19.8158 20.0084 19.6867 22.0271C19.6796 22.1386 19.6728 22.25 19.6661 22.3615C19.6535 22.566 19.6396 22.7703 19.6253 22.9747C19.62 23.0626 19.62 23.0626 19.6146 23.1523C19.5542 23.9506 19.267 24.5905 18.658 25.1193C18.1469 25.4928 17.6169 25.6253 16.9923 25.6189C16.9278 25.6193 16.8634 25.6197 16.797 25.6202C16.6203 25.621 16.4437 25.6207 16.267 25.6199C16.0756 25.6193 15.8842 25.6202 15.6928 25.621C15.3187 25.6222 14.9446 25.6219 14.5706 25.6211C14.2663 25.6205 13.9621 25.6204 13.6579 25.6207C13.6145 25.6208 13.571 25.6208 13.5263 25.6208C13.4381 25.6209 13.3498 25.621 13.2616 25.6211C12.4356 25.6219 11.6097 25.621 10.7838 25.6195C10.0763 25.6183 9.36875 25.6185 8.66124 25.6198C7.8381 25.6212 7.01497 25.6218 6.19184 25.621C6.10394 25.6209 6.01604 25.6208 5.92814 25.6207C5.86328 25.6207 5.86328 25.6207 5.79711 25.6206C5.49351 25.6204 5.18992 25.6208 4.88633 25.6214C4.51596 25.6222 4.14561 25.6219 3.77524 25.6205C3.58655 25.6198 3.39788 25.6195 3.20918 25.6204C3.00401 25.6212 2.79892 25.6202 2.59375 25.6189C2.53497 25.6195 2.4762 25.6201 2.41564 25.6207C1.73468 25.6121 1.16077 25.3583 0.675156 24.8832C0.263302 24.4251 0.0145909 23.8873 0.0138536 23.2657C0.0136645 23.2296 0.0134753 23.1935 0.0132804 23.1562C0.0127799 23.0356 0.0130431 22.9149 0.0133057 22.7943C0.0131041 22.7068 0.0128559 22.6192 0.012565 22.5317C0.0119054 22.2914 0.0119191 22.0511 0.0120464 21.8109C0.0120684 21.5516 0.0114728 21.2924 0.0109612 21.0331C0.0100651 20.5253 0.00976836 20.0175 0.00970819 19.5097C0.00965691 19.0968 0.00943508 18.684 0.00909303 18.2711C0.00814279 17.1003 0.00764512 15.9295 0.00772604 14.7587C0.00773035 14.6956 0.00773456 14.6325 0.00773901 14.5675C0.00774342 14.5043 0.00774784 14.4411 0.00775238 14.376C0.00779623 13.3521 0.0067639 12.3283 0.00524233 11.3044C0.00369193 10.2529 0.00294717 9.2013 0.00304037 8.14974C0.00307617 7.55948 0.00278044 6.96922 0.00161843 6.37896C0.000635303 5.87636 0.000401858 5.37376 0.00113395 4.87115C0.00148596 4.61483 0.00149349 4.35852 0.000556243 4.10221C-0.000293965 3.86727 -0.000136333 3.63236 0.000802803 3.39743C0.000968099 3.31272 0.000773598 3.22802 0.00017035 3.14332C-0.0050647 2.35571 0.143581 1.74328 0.675156 1.14445C1.35358 0.464872 2.09144 0.402613 2.99744 0.404749ZM1.41699 1.97059C1.17319 2.25343 1.08659 2.5522 1.0861 2.91909C1.08583 2.9547 1.08557 2.99032 1.08529 3.02702C1.08459 3.14592 1.08504 3.26479 1.08549 3.38369C1.08523 3.46998 1.08489 3.55627 1.0845 3.64255C1.08361 3.87934 1.08374 4.11611 1.08403 4.35289C1.08417 4.60839 1.08339 4.86388 1.08273 5.11938C1.08159 5.61981 1.08135 6.12024 1.08145 6.62067C1.08152 7.02745 1.08131 7.43424 1.08091 7.84102C1.0808 7.9582 1.08068 8.07537 1.08057 8.19254C1.08051 8.25086 1.08046 8.30918 1.0804 8.36926C1.07938 9.4723 1.07944 10.5753 1.0798 11.6784C1.08011 12.6873 1.07898 13.6962 1.0772 14.7051C1.07537 15.7412 1.07456 16.7773 1.07481 17.8134C1.07493 18.395 1.07464 18.9766 1.0733 19.5582C1.07217 20.0534 1.07197 20.5486 1.07299 21.0438C1.07349 21.2964 1.07355 21.549 1.07244 21.8015C1.07143 22.033 1.07167 22.2643 1.0729 22.4957C1.07312 22.5793 1.0729 22.6628 1.07216 22.7464C1.06769 23.2937 1.12415 23.7218 1.4878 24.1515C1.98463 24.5522 2.43497 24.5677 3.05483 24.5668C3.11474 24.5669 3.17464 24.567 3.23636 24.5671C3.43686 24.5675 3.63735 24.5674 3.83784 24.5674C3.98169 24.5675 4.12554 24.5677 4.26938 24.5679C4.61941 24.5684 4.96944 24.5685 5.31947 24.5686C5.60406 24.5686 5.88865 24.5687 6.17323 24.5689C6.98062 24.5693 7.788 24.5696 8.59538 24.5695C8.66062 24.5695 8.66062 24.5695 8.72717 24.5695C8.77072 24.5695 8.81427 24.5695 8.85913 24.5695C9.56491 24.5695 10.2707 24.57 10.9765 24.5708C11.7017 24.5716 12.4269 24.5719 13.1521 24.5719C13.559 24.5719 13.966 24.572 14.3729 24.5726C14.7194 24.5731 15.0658 24.5732 15.4123 24.5728C15.5889 24.5727 15.7655 24.5727 15.9422 24.5731C16.134 24.5735 16.3257 24.5733 16.5175 24.5729C16.5729 24.5732 16.6283 24.5734 16.6855 24.5737C17.1993 24.5713 17.6956 24.5177 18.0833 24.1511C18.4483 23.7511 18.5031 23.3941 18.4987 22.8677C18.4989 22.8064 18.499 22.745 18.4991 22.6818C18.4994 22.4765 18.4985 22.2711 18.4976 22.0658C18.4975 21.9185 18.4976 21.7712 18.4977 21.6239C18.4978 21.3069 18.4973 20.9899 18.4964 20.6729C18.495 20.2146 18.4946 19.7562 18.4944 19.2979C18.4941 18.5543 18.493 17.8106 18.4915 17.067C18.49 16.3447 18.4888 15.6224 18.4881 14.9001C18.4881 14.8556 18.4881 14.8111 18.488 14.7652C18.4878 14.5417 18.4876 14.3183 18.4874 14.0948C18.4857 12.2418 18.4829 10.3888 18.4793 8.53585C18.3005 8.52691 18.1218 8.51814 17.9431 8.50941C17.8931 8.5069 17.8432 8.5044 17.7917 8.50182C17.3628 8.48099 16.9346 8.47317 16.5052 8.47115C16.3781 8.47049 16.2509 8.46944 16.1237 8.46828C15.7632 8.46502 15.4027 8.46204 15.0421 8.46024C14.819 8.45911 14.5959 8.4572 14.3728 8.45481C14.289 8.45405 14.2052 8.45358 14.1213 8.4534C13.3742 8.45169 12.7596 8.37307 12.1823 7.86019C11.4991 7.14741 11.5566 6.07164 11.5511 5.15628C11.5501 5.04954 11.549 4.94281 11.5479 4.83608C11.5452 4.55723 11.543 4.27838 11.541 3.99953C11.5388 3.71415 11.5361 3.42878 11.5334 3.14341C11.5282 2.585 11.5236 2.02658 11.5195 1.46816C10.3461 1.46564 9.17267 1.46374 7.99927 1.46257C7.45442 1.46202 6.90956 1.46126 6.36471 1.46002C5.88972 1.45895 5.41473 1.45825 4.93974 1.45801C4.68833 1.45787 4.43692 1.45754 4.1855 1.45675C3.94863 1.45602 3.71177 1.4558 3.4749 1.45596C3.38819 1.45593 3.30148 1.45572 3.21477 1.4553C2.22156 1.44807 2.22156 1.44807 1.41699 1.97059ZM12.5985 1.68397C12.5947 2.26368 12.5919 2.84339 12.5901 3.42311C12.5893 3.69235 12.5881 3.96158 12.5863 4.23082C12.5845 4.49109 12.5836 4.75135 12.5831 5.01162C12.5829 5.11047 12.5823 5.20932 12.5814 5.30817C12.559 6.33382 12.559 6.33382 13.0295 7.21277C13.2647 7.3909 13.5222 7.4166 13.8098 7.42006C13.912 7.42167 13.912 7.42167 14.0163 7.42331C14.0904 7.42395 14.1645 7.42458 14.2386 7.4252C14.316 7.42621 14.3935 7.42727 14.471 7.42837C14.6754 7.43113 14.8798 7.43327 15.0842 7.43528C15.2472 7.43699 15.4101 7.43913 15.5731 7.4413C16.5059 7.45372 17.4385 7.45996 18.3713 7.45681C18.1034 7.13359 17.8136 6.83744 17.5165 6.54102C17.4634 6.48782 17.4102 6.43461 17.3571 6.38139C17.2139 6.23794 17.0706 6.09466 16.9271 5.95141C16.7769 5.80129 16.6268 5.65104 16.4766 5.50081C16.2249 5.24897 15.973 4.99725 15.7211 4.74559C15.4296 4.45433 15.1382 4.16287 14.8469 3.87131C14.5967 3.62081 14.3463 3.3704 14.0958 3.12009C13.9463 2.97065 13.7968 2.82117 13.6474 2.67159C13.5073 2.53131 13.3671 2.39116 13.2267 2.25112C13.1504 2.17489 13.0742 2.09853 12.998 2.02216C12.953 1.97731 12.908 1.93246 12.8616 1.88625C12.8223 1.84696 12.783 1.80766 12.7425 1.76717C12.6663 1.67787 12.6663 1.67787 12.5985 1.68397Z" fill="#626C70"/>
<path d="M10.8721 12.9599C10.9082 12.9794 10.9444 12.999 10.9817 13.0191C11.2333 13.1764 11.4127 13.3834 11.5195 13.6613C11.5637 13.9003 11.5924 14.1393 11.4577 14.3525C11.3263 14.4746 11.2051 14.5228 11.0306 14.5548C10.8217 14.5149 10.7501 14.4638 10.6023 14.3087C10.5481 14.2185 10.4954 14.1273 10.4438 14.0356C10.3086 13.8038 10.2249 13.6786 9.95489 13.6073C9.61705 13.573 9.32534 13.5678 9.03771 13.7692C8.92763 13.8604 8.92763 13.8604 8.87585 13.985C8.86287 14.15 8.86287 14.15 8.9298 14.3087C9.27698 14.6146 9.76422 14.6758 10.2003 14.7895C10.7372 14.9348 11.2642 15.1019 11.5817 15.5915C11.8039 15.991 11.8271 16.3804 11.7237 16.8219C11.6019 17.1969 11.364 17.4937 11.0339 17.7077C10.3507 18.0376 9.50471 18.1167 8.77469 17.8864C8.26203 17.6766 7.9667 17.3786 7.73527 16.8714C7.663 16.6612 7.65127 16.4701 7.68891 16.251C7.7964 16.0864 7.86894 16.0031 8.0632 15.9557C8.26628 15.9407 8.36611 15.9643 8.53528 16.0824C8.64402 16.2293 8.71681 16.3604 8.79492 16.5241C8.90131 16.7444 8.97706 16.8876 9.19956 17.0063C9.56575 17.1286 9.85964 17.1224 10.2246 17.0063C10.3031 16.9846 10.3031 16.9846 10.3831 16.9624C10.5039 16.9052 10.5039 16.9052 10.5652 16.777C10.6215 16.5517 10.6416 16.3068 10.5484 16.0891C10.3695 15.9811 10.1765 15.9319 9.97638 15.8758C9.90577 15.8556 9.83517 15.8353 9.76458 15.8149C9.6546 15.7834 9.54458 15.7522 9.43436 15.7216C8.79253 15.5426 8.20188 15.348 7.85077 14.7403C7.7226 14.3558 7.73715 13.8958 7.90472 13.5264C8.14189 13.1184 8.53938 12.888 8.98776 12.7681C9.60097 12.6748 10.3189 12.6542 10.8721 12.9599Z" fill="#626C70"/>
<path d="M6.4915 13.1116C6.83361 13.3552 7.07487 13.6332 7.20299 14.0389C7.23735 14.2608 7.2263 14.4267 7.11869 14.629C6.94551 14.7756 6.83501 14.7943 6.60952 14.7943C6.36611 14.6833 6.26846 14.5423 6.13407 14.3154C5.87892 13.9243 5.87892 13.9243 5.47653 13.7152C5.13485 13.668 4.78841 13.6487 4.47842 13.8198C4.1605 14.0619 3.93849 14.4119 3.87125 14.8063C3.81331 15.4602 3.77539 16.1696 4.2093 16.711C4.46269 16.9618 4.72065 17.0207 5.07189 17.0333C5.4183 17.0208 5.68508 16.9661 5.9307 16.711C6.09963 16.4912 6.20903 16.2423 6.31784 15.9886C6.4151 15.8408 6.49508 15.8118 6.66347 15.7654C6.84571 15.7728 6.95768 15.8023 7.11532 15.8935C7.26115 16.1291 7.24396 16.36 7.20299 16.6286C7.02236 17.159 6.67885 17.5678 6.17791 17.8156C5.59531 18.0945 4.78257 18.0599 4.17157 17.8931C3.66293 17.7069 3.27385 17.3608 2.99475 16.8984C2.63236 16.1079 2.52069 15.1901 2.77704 14.3447C3.06386 13.6055 3.47211 13.2064 4.17242 12.8708C4.91698 12.5544 5.82197 12.6995 6.4915 13.1116Z" fill="#626C70"/>
<path d="M12.5646 12.7272C12.6062 12.7252 12.6477 12.7232 12.6906 12.7211C12.8657 12.7537 12.9156 12.8234 13.0299 12.9599C13.0956 13.1001 13.1523 13.2352 13.2055 13.3799C13.2294 13.4433 13.2294 13.4433 13.2538 13.5079C13.4417 14.012 13.6127 14.522 13.7818 15.0327C13.8367 15.1983 13.8921 15.3637 13.9476 15.529C13.9828 15.6347 14.018 15.7404 14.0531 15.8461C14.0696 15.8953 14.0861 15.9446 14.1031 15.9953C14.1181 16.0407 14.1331 16.0862 14.1485 16.133C14.1618 16.1729 14.175 16.2127 14.1887 16.2538C14.2168 16.3589 14.2168 16.3589 14.2168 16.5207C14.2525 16.5207 14.2881 16.5207 14.3247 16.5207C14.3455 16.4186 14.3455 16.4186 14.3667 16.3144C14.4324 16.0196 14.5262 15.7374 14.6244 15.452C14.6522 15.3705 14.6522 15.3705 14.6805 15.2874C14.7194 15.1732 14.7585 15.0589 14.7977 14.9448C14.8572 14.7715 14.9163 14.598 14.9753 14.4245C15.0134 14.3129 15.0516 14.2013 15.0898 14.0897C15.1072 14.0386 15.1246 13.9874 15.1426 13.9347C15.5073 12.875 15.5073 12.875 15.7275 12.7441C15.9837 12.6945 16.1562 12.7081 16.3783 12.8486C16.5198 13.0723 16.5098 13.2405 16.4828 13.4994C16.4405 13.6756 16.3795 13.842 16.3149 14.0111C16.2973 14.0589 16.2797 14.1067 16.2616 14.156C16.2046 14.3106 16.1465 14.4648 16.0883 14.6189C16.0486 14.7256 16.009 14.8322 15.9695 14.9389C15.8905 15.1514 15.8111 15.3637 15.7312 15.5759C15.647 15.7999 15.5637 16.0242 15.4813 16.2488C15.4165 16.425 15.3511 16.601 15.2858 16.777C15.2631 16.8387 15.2404 16.9005 15.2171 16.9641C14.9103 17.7781 14.9103 17.7781 14.6488 17.9334C14.5133 17.9885 14.4 17.9994 14.2539 18.0044C14.2052 18.0072 14.1564 18.01 14.1062 18.0128C13.8718 17.9607 13.731 17.8278 13.5694 17.6537C13.4882 17.5192 13.438 17.3804 13.388 17.2318C13.3653 17.1693 13.3653 17.1693 13.3422 17.1056C13.3091 17.0141 13.2764 16.9224 13.2441 16.8305C13.1891 16.6752 13.1321 16.5207 13.0745 16.3663C12.9688 16.083 12.8643 15.7993 12.7602 15.5154C12.6957 15.3396 12.6311 15.1639 12.5664 14.9882C12.5245 14.8742 12.4827 14.7603 12.4409 14.6463C12.4219 14.5949 12.403 14.5434 12.3835 14.4904C12.3285 14.3402 12.2744 14.1896 12.2206 14.0389C12.2003 13.9827 12.1799 13.9265 12.1589 13.8685C12.1391 13.8121 12.1194 13.7557 12.099 13.6975C12.0809 13.6466 12.0629 13.5958 12.0443 13.5434C12.0009 13.3765 11.991 13.2396 12.0048 13.0678C12.1686 12.8222 12.2731 12.7364 12.5646 12.7272Z" fill="#626C70"/>
</svg>
