<svg width="64" height="64" viewBox="0 0 64 64" fill="none" xmlns="http://www.w3.org/2000/svg">
<rect width="64" height="64" rx="32" fill="#FFF6E9"/>
<path d="M34.953 29.382L34.545 28.12L35.618 27.335C36.058 27.015 36.233 26.473 36.064 25.956C35.91 25.48 35.487 25.001 34.891 25.001H33.567L33.175 23.858C33.008 23.337 32.547 23.001 31.999 23.001C31.451 23.001 30.99 23.338 30.827 23.849L30.431 25.001H29.108C28.513 25.001 28.09 25.48 27.934 25.956C27.766 26.473 27.941 27.014 28.379 27.334L29.453 28.12L29.046 29.382C28.877 29.903 29.056 30.444 29.498 30.763C29.933 31.077 30.517 31.075 30.951 30.757L31.999 29.986L33.047 30.756C33.268 30.919 33.523 31 33.777 31C34.028 31 34.279 30.922 34.499 30.764C34.941 30.446 35.119 29.904 34.952 29.382H34.953ZM33.916 29.951C33.823 30.019 33.73 30.018 33.64 29.951L32.296 28.964C32.208 28.9 32.104 28.867 32 28.867C31.896 28.867 31.792 28.899 31.704 28.964L30.36 29.951C30.274 30.013 30.168 30.014 30.084 29.951C29.992 29.886 29.963 29.798 29.998 29.689L30.517 28.083C30.583 27.878 30.511 27.653 30.336 27.526L28.97 26.527C28.879 26.461 28.851 26.372 28.885 26.266C28.938 26.106 29.055 26 29.109 26H30.79C31.004 26 31.193 25.864 31.263 25.662L31.779 24.162C31.847 23.947 32.152 23.937 32.228 24.172L32.739 25.662C32.808 25.864 32.998 26 33.212 26H34.894C34.948 26 35.064 26.105 35.117 26.266C35.151 26.372 35.123 26.46 35.032 26.527L33.666 27.526C33.491 27.653 33.419 27.878 33.485 28.084L34.004 29.688C34.039 29.797 34.011 29.885 33.919 29.951H33.916ZM35.023 35.989C41.64 35.812 44 32.296 44 29.313C44 27.684 42.815 26.333 41.263 26.059C41.508 25.478 41.713 24.923 41.859 24.429C42.167 23.389 41.967 22.289 41.312 21.412C40.642 20.515 39.616 20 38.498 20H25.5C24.382 20 23.355 20.515 22.686 21.412C22.031 22.289 21.832 23.389 22.139 24.429C22.285 24.922 22.49 25.478 22.735 26.059C21.184 26.334 20 27.685 20 29.313C20 32.296 22.359 35.812 28.977 35.989C28.988 36.132 29 36.275 29 36.42V40.5C29 42.912 26.754 42.998 26.498 43H25.5C25.224 43 25 43.224 25 43.5C25 43.776 25.224 44 25.5 44H38.5C38.776 44 39 43.776 39 43.5C39 43.224 38.776 43 38.5 43H37.502C37.246 42.998 35 42.912 35 40.5V36.42C35 36.275 35.012 36.132 35.023 35.989ZM43 29.313C43 31.936 40.934 34.763 35.198 34.98C35.481 33.93 36.064 32.982 36.902 32.269C38.621 30.807 39.935 28.832 40.825 27.014C42.035 27.087 43 28.084 43 29.313ZM21 29.313C21 28.086 21.963 27.089 23.172 27.015C24.063 28.833 25.377 30.806 27.097 32.269C27.935 32.982 28.518 33.93 28.802 34.98C23.066 34.763 21 31.936 21 29.313ZM29.019 43.001C29.582 42.46 30 41.67 30 40.501V36.421C30 34.518 29.179 32.727 27.746 31.508C25.308 29.437 23.719 26.247 23.098 24.147C22.88 23.412 23.023 22.633 23.487 22.012C23.967 21.369 24.701 21.001 25.501 21.001H38.498C39.298 21.001 40.031 21.369 40.512 22.012C40.976 22.633 41.118 23.411 40.901 24.147C40.28 26.249 38.69 29.438 36.255 31.508C34.822 32.727 34.001 34.518 34.001 36.421V40.501C34.001 41.67 34.419 42.46 34.982 43.001H29.021H29.019Z" fill="#C97800"/>
</svg>
