<svg width="20" height="22" viewBox="0 0 20 22" fill="none" xmlns="http://www.w3.org/2000/svg">
<path d="M6.61037 0.458231C6.69327 0.456519 6.77616 0.454752 6.85905 0.452936C7.13008 0.447359 7.40112 0.443577 7.67219 0.440157C7.74169 0.43926 7.74169 0.43926 7.8126 0.438345C8.25075 0.432799 8.68891 0.428007 9.12709 0.424849C9.68456 0.420775 10.2417 0.413139 10.7991 0.400591C11.1926 0.392036 11.5861 0.387687 11.9797 0.386332C12.2141 0.385414 12.4481 0.382748 12.6823 0.37551C14.2705 0.328654 14.2705 0.328654 14.7997 0.798006C15.005 0.994873 15.1845 1.21183 15.3521 1.44129C15.5206 1.6706 15.711 1.88081 15.9139 2.0802C15.9451 2.11116 15.9764 2.14212 16.0086 2.17402C16.0403 2.2052 16.072 2.23637 16.1047 2.26849C16.4582 2.61603 16.4582 2.61603 16.6193 2.80367C16.7882 3.00022 16.9724 3.18037 17.157 3.36207C17.3671 3.56878 17.5709 3.7764 17.7629 4.00001C17.9109 4.16616 18.0714 4.32026 18.23 4.47628C18.4405 4.68346 18.6448 4.89156 18.8371 5.1157C19.0075 5.30682 19.1949 5.48232 19.3784 5.6607C19.9741 6.24784 19.9741 6.24784 19.9891 6.53877C19.9891 6.5799 19.9892 6.62103 19.9893 6.66341C19.9894 6.71089 19.9896 6.75836 19.9897 6.80727C19.9897 6.85966 19.9897 6.91205 19.9896 6.96604C19.9897 7.02207 19.9899 7.07811 19.99 7.13415C19.9903 7.28849 19.9904 7.44284 19.9904 7.59718C19.9905 7.76353 19.9908 7.92987 19.9911 8.09621C19.9917 8.46022 19.9919 8.82423 19.9921 9.18823C19.9922 9.41562 19.9924 9.643 19.9926 9.87038C19.9931 10.5001 19.9935 11.1299 19.9936 11.7596C19.9936 11.7999 19.9936 11.8403 19.9937 11.8818C19.9937 11.9222 19.9937 11.9626 19.9937 12.0043C19.9937 12.0862 19.9937 12.1681 19.9937 12.25C19.9937 12.2906 19.9938 12.3313 19.9938 12.3731C19.9939 13.0307 19.9946 13.6882 19.9956 14.3457C19.9966 15.0211 19.9971 15.6964 19.9972 16.3717C19.9972 16.7508 19.9974 17.1299 19.9982 17.5089C19.9988 17.8319 19.999 18.1549 19.9987 18.4779C19.9985 18.6425 19.9986 18.8072 19.9991 18.9718C19.9997 19.1229 19.9996 19.274 19.9991 19.4251C19.999 19.5049 19.9995 19.5846 20 19.6644C19.9972 20.1671 19.9469 20.6513 19.6124 21.045C19.5882 21.0743 19.5639 21.1036 19.5389 21.1337C19.3082 21.388 18.9592 21.6089 18.6069 21.6281C18.5679 21.6282 18.529 21.6283 18.4889 21.6283C18.4439 21.6285 18.3989 21.6287 18.3526 21.6289C18.303 21.6289 18.2534 21.6289 18.2023 21.6289C18.1235 21.6291 18.1236 21.6291 18.0432 21.6293C17.897 21.6297 17.7509 21.6299 17.6048 21.63C17.4473 21.6302 17.2899 21.6306 17.1324 21.6309C16.7519 21.6317 16.3713 21.6321 15.9908 21.6325C15.8116 21.6327 15.6324 21.6329 15.4531 21.6331C14.8573 21.6338 14.2614 21.6344 13.6655 21.6347C13.5109 21.6348 13.3562 21.6349 13.2016 21.635C13.1439 21.635 13.1439 21.635 13.0851 21.635C12.4627 21.6354 11.8403 21.6364 11.2179 21.6378C10.5788 21.6391 9.9397 21.6399 9.30059 21.64C8.94181 21.6401 8.58302 21.6404 8.22424 21.6415C7.9186 21.6424 7.61297 21.6427 7.30733 21.6423C7.15148 21.6421 6.99564 21.6422 6.8398 21.643C6.67054 21.6439 6.5013 21.6435 6.33204 21.6429C6.25876 21.6436 6.25876 21.6436 6.18401 21.6443C5.69992 21.6405 5.31516 21.5054 4.96258 21.1688C4.47029 20.6532 4.48566 20.0959 4.49252 19.4235C4.49283 19.3344 4.49306 19.2453 4.49323 19.1562C4.49385 18.9231 4.49547 18.6899 4.4973 18.4567C4.499 18.2183 4.49975 17.9798 4.50058 17.7413C4.50234 17.2744 4.50516 16.8075 4.50864 16.3406C4.46491 16.3409 4.42118 16.3411 4.37613 16.3414C3.96327 16.3439 3.55042 16.3458 3.13756 16.347C2.92532 16.3477 2.71309 16.3485 2.50085 16.3499C2.29589 16.3513 2.09094 16.352 1.88597 16.3523C1.80792 16.3526 1.72987 16.353 1.65182 16.3537C1.54218 16.3546 1.43257 16.3547 1.32293 16.3546C1.27493 16.3553 1.27493 16.3553 1.22596 16.356C0.84376 16.3538 0.583859 16.2081 0.307931 15.9474C0.0539946 15.6629 0.0055596 15.331 0.00499917 14.9594C0.00482317 14.9065 0.00464716 14.8535 0.00446583 14.799C0.00448025 14.7409 0.00449929 14.6827 0.0045225 14.6246C0.00439893 14.5629 0.00425849 14.5013 0.0041025 14.4397C0.00373867 14.2726 0.00364147 14.1056 0.00361512 13.9385C0.00358574 13.8341 0.00349709 13.7296 0.0033878 13.6251C0.00300625 13.2602 0.0028377 12.8954 0.0028702 12.5305C0.00289498 12.191 0.00245977 11.8515 0.00180792 11.512C0.00126741 11.22 0.00104673 10.928 0.00107307 10.636C0.00108357 10.4618 0.000967758 10.2877 0.000529653 10.1135C0.000128602 9.9496 0.000127775 9.78569 0.000427014 9.62179C0.000469982 9.56185 0.00037404 9.50191 0.000123505 9.44198C-0.00177326 8.95653 0.0141142 8.55246 0.340654 8.16969C0.633217 7.89731 0.923125 7.77876 1.31824 7.78423C1.3529 7.78421 1.38756 7.7842 1.42326 7.78418C1.53692 7.78426 1.65056 7.78522 1.76421 7.7862C1.84337 7.78643 1.92252 7.7866 2.00168 7.78673C2.20935 7.7872 2.417 7.78841 2.62467 7.78979C2.83684 7.79106 3.04902 7.79162 3.26119 7.79224C3.67701 7.79357 4.09282 7.79568 4.50864 7.79829C4.50849 7.76765 4.50833 7.73702 4.50818 7.70546C4.50453 6.95868 4.5018 6.2119 4.50009 5.46512C4.49924 5.10397 4.49808 4.74283 4.49619 4.38169C4.49454 4.06676 4.49347 3.75184 4.49311 3.43692C4.49289 3.2703 4.49239 3.10369 4.49119 2.93708C4.49006 2.77995 4.48972 2.62283 4.48997 2.46569C4.48992 2.40832 4.4896 2.35095 4.48896 2.29358C4.48331 1.75864 4.58694 1.34143 4.96258 0.947937C5.44739 0.485118 5.97568 0.467055 6.61037 0.458231ZM5.54548 1.60047C5.51116 1.64045 5.51116 1.64045 5.47616 1.68123C5.35526 1.86781 5.32366 2.05064 5.32406 2.26999C5.32394 2.31894 5.32383 2.3679 5.32371 2.41833C5.32401 2.47146 5.32431 2.5246 5.32461 2.57934C5.32464 2.6363 5.32462 2.69325 5.32458 2.75021C5.32455 2.90435 5.32504 3.05848 5.32561 3.21261C5.32613 3.37388 5.32618 3.53514 5.32628 3.6964C5.32653 4.00156 5.32721 4.30671 5.32804 4.61187C5.32896 4.95937 5.32941 5.30687 5.32983 5.65438C5.33069 6.36901 5.33214 7.08365 5.33398 7.79829C5.37061 7.79835 5.40723 7.79841 5.44497 7.79847C6.33707 7.8 7.22916 7.80244 8.12126 7.80588C8.55267 7.80752 8.98408 7.80885 9.4155 7.80947C9.79162 7.81001 10.1677 7.81112 10.5439 7.81292C10.7429 7.81385 10.942 7.8145 11.141 7.81446C11.3286 7.81443 11.5162 7.81517 11.7038 7.81649C11.7724 7.81684 11.841 7.81692 11.9097 7.81668C12.6163 7.81461 12.6163 7.81461 12.9271 8.00462C12.9494 8.02688 12.9716 8.04914 12.9945 8.07208C13.0474 8.13814 13.0474 8.13814 13.1335 8.12842C13.1453 8.1522 13.1572 8.17598 13.1694 8.20048C13.199 8.25957 13.2288 8.31858 13.2587 8.37748C13.2727 8.40509 13.2867 8.4327 13.3011 8.46114C13.3152 8.48886 13.3293 8.51657 13.3438 8.54513C13.4204 8.70661 13.4278 8.83483 13.4284 9.01178C13.4286 9.03872 13.4287 9.06567 13.4289 9.09343C13.4293 9.1839 13.4295 9.27437 13.4297 9.36484C13.4299 9.42964 13.4302 9.49445 13.4305 9.55926C13.4313 9.7723 13.4318 9.98535 13.4322 10.1984C13.4323 10.2718 13.4325 10.3452 13.4327 10.4186C13.4335 10.7636 13.4341 11.1086 13.4344 11.4536C13.4348 11.8514 13.4359 12.2492 13.4376 12.6471C13.4388 12.9548 13.4394 13.2625 13.4396 13.5702C13.4397 13.7539 13.44 13.9375 13.4411 14.1212C13.442 14.2941 13.4422 14.4671 13.4418 14.6401C13.4418 14.7033 13.442 14.7666 13.4426 14.8298C13.4461 15.2404 13.4013 15.5604 13.1902 15.9176C12.92 16.1736 12.6361 16.304 12.2667 16.3059C12.2371 16.3061 12.2075 16.3063 12.177 16.3065C12.0776 16.3071 11.9782 16.3075 11.8787 16.3078C11.8076 16.3082 11.7364 16.3086 11.6652 16.309C11.4718 16.3102 11.2783 16.311 11.0849 16.3118C10.8828 16.3127 10.6808 16.3139 10.4787 16.315C10.0959 16.317 9.71314 16.3189 9.33038 16.3207C8.89466 16.3227 8.45894 16.325 8.02322 16.3273C7.12681 16.332 6.23039 16.3364 5.33398 16.3406C5.33111 16.8245 5.32891 17.3084 5.32757 17.7924C5.32692 18.0171 5.32605 18.2418 5.32464 18.4666C5.32329 18.6836 5.32256 18.9006 5.32224 19.1176C5.32201 19.2002 5.32156 19.2829 5.32089 19.3655C5.31999 19.4816 5.31987 19.5976 5.31993 19.7137C5.31948 19.7476 5.31904 19.7816 5.31858 19.8165C5.31996 20.0776 5.3633 20.3104 5.53339 20.5186C5.57384 20.5519 5.57384 20.5519 5.61511 20.586C5.64177 20.6088 5.66842 20.6317 5.69588 20.6553C5.95895 20.8257 6.23165 20.8094 6.53409 20.8088C6.58473 20.809 6.63538 20.8092 6.68755 20.8094C6.82782 20.8099 6.96809 20.8101 7.10836 20.8101C7.25976 20.8101 7.41116 20.8107 7.56256 20.8111C7.89347 20.8121 8.22438 20.8124 8.55528 20.8126C8.76199 20.8127 8.9687 20.813 9.1754 20.8133C9.74798 20.8141 10.3206 20.8148 10.8931 20.8149C10.9298 20.8149 10.9664 20.8149 11.0041 20.8149C11.0784 20.815 11.1526 20.815 11.2269 20.815C11.2637 20.815 11.3006 20.815 11.3385 20.815C11.3939 20.815 11.3939 20.815 11.4504 20.815C12.0482 20.8152 12.6461 20.8163 13.2439 20.8178C13.8581 20.8194 14.4723 20.8202 15.0864 20.8202C15.4311 20.8202 15.7758 20.8206 16.1205 20.8218C16.414 20.8228 16.7075 20.8231 17.001 20.8225C17.1507 20.8222 17.3003 20.8222 17.45 20.8232C17.6125 20.8242 17.7749 20.8236 17.9374 20.8228C17.9844 20.8234 18.0313 20.8239 18.0797 20.8245C18.3825 20.8213 18.6184 20.7664 18.8696 20.5911C19.0516 20.4 19.1224 20.2185 19.1223 19.9576C19.1224 19.9115 19.1225 19.8654 19.1225 19.8179C19.1224 19.7416 19.1224 19.7416 19.1222 19.6638C19.1222 19.6099 19.1222 19.5561 19.1223 19.5006C19.1224 19.3508 19.1222 19.2009 19.122 19.0511C19.1218 18.8897 19.1219 18.7282 19.1219 18.5668C19.1219 18.287 19.1218 18.0072 19.1216 17.7274C19.1212 17.3228 19.1211 16.9183 19.1211 16.5137C19.121 15.8574 19.1207 15.2011 19.1203 14.5447C19.1199 13.9071 19.1197 13.2694 19.1195 12.6318C19.1195 12.5925 19.1195 12.5532 19.1194 12.5127C19.1194 12.3156 19.1193 12.1185 19.1193 11.9214C19.1189 10.2857 19.1181 8.64995 19.1172 7.01421C19.0898 7.01411 19.0623 7.01401 19.034 7.01391C18.3658 7.01147 17.6977 7.00835 17.0295 7.00448C16.7064 7.00263 16.3832 7.001 16.0601 6.99991C15.7785 6.99897 15.4968 6.99759 15.2152 6.99569C15.0661 6.99471 14.917 6.99393 14.7678 6.99368C14.6013 6.99338 14.4349 6.99212 14.2684 6.99079C14.219 6.99085 14.1695 6.9909 14.1186 6.99097C14.0732 6.99045 14.0278 6.98993 13.981 6.9894C13.9416 6.98921 13.9022 6.98902 13.8617 6.98882C13.7311 6.96984 13.653 6.92518 13.5461 6.84914C13.4573 6.7223 13.453 6.61305 13.4521 6.46056C13.4517 6.41519 13.4512 6.36982 13.4507 6.32308C13.4506 6.27351 13.4505 6.22394 13.4505 6.17287C13.4498 6.09434 13.4498 6.09434 13.4492 6.01423C13.4481 5.87084 13.4474 5.72744 13.4469 5.58404C13.4463 5.43412 13.4452 5.28421 13.4441 5.13429C13.4422 4.85047 13.4407 4.56665 13.4393 4.28283C13.4377 3.95968 13.4357 3.63653 13.4336 3.31338C13.4293 2.6487 13.4256 1.98402 13.4223 1.31934C12.4649 1.31645 11.5075 1.31427 10.5501 1.31293C10.1055 1.31229 9.66097 1.31142 9.21642 1.31C8.82891 1.30877 8.4414 1.30797 8.05388 1.30769C7.84873 1.30753 7.64359 1.30715 7.43844 1.30625C7.24523 1.30541 7.05204 1.30515 6.85883 1.30534C6.78803 1.3053 6.71723 1.30506 6.64644 1.30458C6.5495 1.30396 6.45259 1.30412 6.35566 1.30445C6.30149 1.30434 6.24732 1.30423 6.19151 1.30411C5.93823 1.32884 5.7124 1.398 5.54548 1.60047ZM14.289 1.69075C14.289 3.16151 14.289 4.63227 14.289 6.1476C15.7052 6.1476 17.1215 6.1476 18.5807 6.1476C18.4207 5.93426 18.2877 5.76204 18.1025 5.58018C18.0815 5.55944 18.0606 5.53871 18.039 5.51735C17.973 5.45211 17.9068 5.38717 17.8405 5.32226C17.7532 5.23643 17.6659 5.15046 17.5789 5.06434C17.5474 5.03319 17.5474 5.03319 17.5153 5.00141C17.3785 4.86521 17.2503 4.72431 17.1252 4.57751C16.9789 4.4122 16.8191 4.25965 16.6618 4.10488C16.4518 3.89816 16.2479 3.69054 16.056 3.46693C15.9079 3.30079 15.7474 3.14668 15.5889 2.99066C15.3772 2.78231 15.1712 2.5731 14.9776 2.34772C14.8587 2.21247 14.7313 2.08588 14.6036 1.95898C14.5777 1.93292 14.5518 1.90685 14.5251 1.87999C14.5005 1.85542 14.4759 1.83084 14.4505 1.80552C14.4283 1.78342 14.4062 1.76131 14.3834 1.73854C14.337 1.68615 14.337 1.68615 14.289 1.69075ZM0.948041 8.79803C0.862792 8.93564 0.856565 9.01484 0.856722 9.1759C0.856376 9.22907 0.85603 9.28224 0.855673 9.33703C0.856125 9.39565 0.856595 9.45428 0.857078 9.5129C0.85699 9.57487 0.85683 9.63684 0.856604 9.6988C0.856204 9.86686 0.856835 10.0349 0.857673 10.2029C0.858398 10.3788 0.858252 10.5547 0.858221 10.7306C0.858298 11.0259 0.859014 11.3213 0.860141 11.6166C0.86144 11.9581 0.861874 12.2995 0.861814 12.641C0.861763 12.9695 0.862185 13.298 0.86287 13.6265C0.863161 13.7663 0.863312 13.9061 0.863356 14.0459C0.863439 14.2105 0.863942 14.3751 0.864773 14.5397C0.865014 14.6001 0.865115 14.6605 0.865067 14.7209C0.865027 14.8034 0.865545 14.8858 0.866092 14.9682C0.86623 15.0144 0.866369 15.0605 0.866511 15.108C0.877499 15.2305 0.885741 15.2937 0.959662 15.3914C1.1788 15.5461 1.39772 15.5327 1.65524 15.531C1.72304 15.5313 1.72304 15.5313 1.79221 15.5316C1.9437 15.532 2.09519 15.5317 2.24668 15.5313C2.35528 15.5314 2.46387 15.5317 2.57247 15.5319C2.83683 15.5325 3.10119 15.5324 3.36555 15.532C3.58042 15.5317 3.79528 15.5317 4.01015 15.5318C4.04074 15.5318 4.07133 15.5319 4.10284 15.5319C4.16499 15.5319 4.22713 15.532 4.28927 15.532C4.87189 15.5323 5.4545 15.5319 6.03712 15.5313C6.53695 15.5307 7.03678 15.5308 7.53662 15.5314C8.11716 15.5321 8.6977 15.5323 9.27824 15.5319C9.34016 15.5319 9.40207 15.5319 9.46398 15.5318C9.50968 15.5318 9.50968 15.5318 9.55629 15.5318C9.77088 15.5317 9.98547 15.5318 10.2001 15.5321C10.4889 15.5325 10.7778 15.5322 11.0666 15.5315C11.1727 15.5314 11.2788 15.5314 11.3849 15.5317C11.5296 15.532 11.6742 15.5316 11.8189 15.531C11.8821 15.5314 11.8821 15.5314 11.9466 15.5318C12.166 15.53 12.3268 15.5186 12.5145 15.3914C12.6887 15.1277 12.6557 14.8232 12.6543 14.5175C12.6545 14.4582 12.6547 14.3988 12.6549 14.3395C12.6555 14.1789 12.6553 14.0184 12.6549 13.8578C12.6546 13.6895 12.6549 13.5212 12.6551 13.3528C12.6553 13.0702 12.655 12.7875 12.6544 12.5049C12.6537 12.1785 12.654 11.8521 12.6546 11.5257C12.6552 11.2451 12.6553 10.9644 12.655 10.6838C12.6548 10.5163 12.6547 10.3489 12.6551 10.1815C12.6555 10.024 12.6553 9.86659 12.6545 9.70915C12.6544 9.65151 12.6544 9.59387 12.6547 9.53623C12.6669 9.12058 12.6669 9.12058 12.5145 8.74743C12.2693 8.6096 12.0526 8.60617 11.7755 8.60819C11.7306 8.60802 11.6857 8.60786 11.6394 8.60769C11.4891 8.60729 11.3387 8.60778 11.1884 8.60827C11.0806 8.60817 10.9727 8.60801 10.8649 8.60781C10.6025 8.60742 10.3401 8.60769 10.0777 8.60819C9.77211 8.60876 9.46651 8.60869 9.16091 8.6086C8.61569 8.60847 8.07046 8.60895 7.52523 8.60976C6.9962 8.61054 6.46717 8.61083 5.93814 8.6106C5.36189 8.61035 4.78564 8.61036 4.20939 8.61083C4.14795 8.61088 4.08652 8.61093 4.02508 8.61098C3.97974 8.61102 3.97974 8.61102 3.93348 8.61105C3.72046 8.61121 3.50744 8.6112 3.29443 8.61112C3.0078 8.61102 2.72118 8.61138 2.43456 8.61203C2.32924 8.61221 2.22392 8.61224 2.1186 8.61213C1.9751 8.61199 1.83162 8.61237 1.68813 8.61287C1.64622 8.61272 1.60431 8.61256 1.56112 8.6124C1.31008 8.61397 1.13552 8.61511 0.948041 8.79803Z" fill="#626C70"/>
<path d="M5.66406 10.3981C5.94834 10.3956 6.23262 10.393 6.52551 10.3904C6.6144 10.3893 6.70328 10.3881 6.79486 10.387C6.8666 10.3866 6.93834 10.3863 7.01008 10.386C7.04628 10.3854 7.08249 10.3848 7.11979 10.3841C7.56708 10.3839 7.89394 10.5091 8.22263 10.8108C8.57243 11.1606 8.63581 11.7079 8.6382 12.1802C8.62842 12.6989 8.52604 13.1997 8.15057 13.5823C7.90169 13.7855 7.61666 13.9114 7.2944 13.9105C7.25755 13.9105 7.22071 13.9105 7.18275 13.9105C7.12521 13.9102 7.12521 13.9102 7.0665 13.9099C7.03097 13.9098 6.99544 13.9098 6.95884 13.9097C6.82643 13.9095 6.69403 13.9089 6.56162 13.9084C6.26543 13.9076 5.96923 13.9067 5.66406 13.9058C5.66406 12.7483 5.66406 11.5907 5.66406 10.3981ZM6.40687 11.0171C6.40687 11.7661 6.40687 12.5151 6.40687 13.2868C7.09492 13.3491 7.09492 13.3491 7.6552 13.0779C7.90565 12.6575 7.90565 12.1438 7.83043 11.6703C7.77201 11.45 7.69344 11.2913 7.52109 11.1409C7.17229 10.9571 6.79502 11.0171 6.40687 11.0171Z" fill="#626C70"/>
<path d="M2.4043 10.3981C2.69709 10.3964 2.98988 10.3947 3.29154 10.393C3.38333 10.3922 3.47512 10.3915 3.56969 10.3907C3.64333 10.3904 3.71697 10.3902 3.79062 10.3901C3.82813 10.3896 3.86565 10.3892 3.9043 10.3888C4.24262 10.3887 4.52495 10.4274 4.79779 10.6457C5.02539 10.8733 5.13179 11.1269 5.14083 11.4504C5.12518 11.8103 5.0503 12.0719 4.79779 12.3377C4.54695 12.5405 4.28153 12.5927 3.96471 12.6111C3.91561 12.6142 3.86651 12.6172 3.81592 12.6204C3.59311 12.6283 3.37005 12.6265 3.14711 12.6265C3.14711 13.0487 3.14711 13.4709 3.14711 13.9058C2.90198 13.9058 2.65685 13.9058 2.4043 13.9058C2.4043 12.7483 2.4043 11.5907 2.4043 10.3981ZM3.14711 11.0171C3.14711 11.3303 3.14711 11.6436 3.14711 11.9663C3.33223 11.9701 3.33223 11.9701 3.52109 11.974C3.55939 11.9751 3.5977 11.9763 3.63716 11.9774C3.86396 11.9797 4.01988 11.9512 4.22005 11.8425C4.32527 11.7203 4.3426 11.6504 4.35675 11.4891C4.34239 11.3219 4.34239 11.3219 4.26132 11.1822C4.01968 10.9958 3.73192 11.0119 3.43856 11.0145C3.29429 11.0158 3.29429 11.0158 3.14711 11.0171Z" fill="#626C70"/>
<path d="M9.17188 10.3981C9.97535 10.3981 10.7788 10.3981 11.6066 10.3981C11.6066 10.6024 11.6066 10.8067 11.6066 11.0171C11.0483 11.0171 10.4899 11.0171 9.91468 11.0171C9.91468 11.2759 9.91468 11.5346 9.91468 11.8012C10.4049 11.8012 10.8952 11.8012 11.4003 11.8012C11.4003 12.0055 11.4003 12.2097 11.4003 12.4202C10.91 12.4202 10.4198 12.4202 9.91468 12.4202C9.91468 12.9105 9.91468 13.4007 9.91468 13.9058C9.66956 13.9058 9.42443 13.9058 9.17188 13.9058C9.17188 12.7483 9.17188 11.5907 9.17188 10.3981Z" fill="#626C70"/>
</svg>
