<svg width="20" height="20" viewBox="0 0 20 20" fill="none" xmlns="http://www.w3.org/2000/svg">
<path d="M8.75 5H11.25C12.1692 5 12.9167 4.2525 12.9167 3.33333V1.66667C12.9167 0.7475 12.1692 0 11.25 0H8.75C7.83083 0 7.08333 0.7475 7.08333 1.66667V3.33333C7.08333 4.2525 7.83083 5 8.75 5ZM8.75 1.66667H11.25V3.33333H8.75V1.66667ZM11.25 15H8.75C7.83083 15 7.08333 15.7475 7.08333 16.6667V18.3333C7.08333 19.2525 7.83083 20 8.75 20H11.25C12.1692 20 12.9167 19.2525 12.9167 18.3333V16.6667C12.9167 15.7475 12.1692 15 11.25 15ZM11.25 18.3333H8.75V16.6667H11.25V18.3333ZM18.3333 15H15.8333C14.9142 15 14.1667 15.7475 14.1667 16.6667V18.3333C14.1667 19.2525 14.9142 20 15.8333 20H18.3333C19.2525 20 20 19.2525 20 18.3333V16.6667C20 15.7475 19.2525 15 18.3333 15ZM18.3333 18.3333H15.8333V16.6667H18.3333V18.3333ZM4.16667 15H1.66667C0.7475 15 0 15.7475 0 16.6667V18.3333C0 19.2525 0.7475 20 1.66667 20H4.16667C5.08583 20 5.83333 19.2525 5.83333 18.3333V16.6667C5.83333 15.7475 5.08583 15 4.16667 15ZM4.16667 18.3333H1.66667V16.6667H4.16667V18.3333ZM3.75 13.3333H2.08333V11.25C2.08333 10.1008 3.01833 9.16667 4.16667 9.16667H9.16667V6.66667H10.8333V9.16667H15.8333C16.9825 9.16667 17.9167 10.1008 17.9167 11.25V13.3333H16.25V11.25C16.25 11.0208 16.0625 10.8333 15.8333 10.8333H10.8333V13.3333H9.16667V10.8333H4.16667C3.93667 10.8333 3.75 11.0208 3.75 11.25V13.3333Z" fill="#141514"/>
</svg>
